<svg width="46" height="46" viewBox="0 0 46 46" fill="none" xmlns="http://www.w3.org/2000/svg">
<path d="M39.0739 42.9052H6.89524C6.69204 42.9052 6.49717 42.8245 6.35349 42.6808C6.2098 42.5371 6.12908 42.3422 6.12908 42.139C6.12908 41.5295 5.88692 40.9448 5.45588 40.5138C5.02483 40.0827 4.4402 39.8406 3.83061 39.8406C3.62741 39.8406 3.43254 39.7599 3.28886 39.6162C3.14517 39.4725 3.06445 39.2776 3.06445 39.0744V26.8159C3.06445 26.6127 3.14517 26.4178 3.28886 26.2741C3.43254 26.1305 3.62741 26.0497 3.83061 26.0497C4.4402 26.0497 5.02483 25.8076 5.45588 25.3765C5.88692 24.9455 6.12908 24.3609 6.12908 23.7513C6.12908 23.5481 6.2098 23.3532 6.35349 23.2095C6.49717 23.0658 6.69204 22.9851 6.89524 22.9851H39.0739C39.2771 22.9851 39.4719 23.0658 39.6156 23.2095C39.7593 23.3532 39.84 23.5481 39.84 23.7513C39.84 24.3609 40.0822 24.9455 40.5132 25.3765C40.9443 25.8076 41.5289 26.0497 42.1385 26.0497C42.3417 26.0497 42.5366 26.1305 42.6802 26.2741C42.8239 26.4178 42.9046 26.6127 42.9046 26.8159V39.0744C42.9046 39.2776 42.8239 39.4725 42.6802 39.6162C42.5366 39.7599 42.3417 39.8406 42.1385 39.8406C41.5289 39.8406 40.9443 40.0827 40.5132 40.5138C40.0822 40.9448 39.84 41.5295 39.84 42.139C39.84 42.3422 39.7593 42.5371 39.6156 42.6808C39.4719 42.8245 39.2771 42.9052 39.0739 42.9052ZM7.58478 41.3729H38.3843C38.5357 40.6372 38.8994 39.9621 39.4305 39.431C39.9615 38.8999 40.6367 38.5362 41.3723 38.3849V27.5054C40.6367 27.3541 39.9615 26.9904 39.4305 26.4593C38.8994 25.9282 38.5357 25.2531 38.3843 24.5174H7.58478C7.43344 25.2531 7.06972 25.9282 6.53864 26.4593C6.00756 26.9904 5.33242 27.3541 4.59677 27.5054V38.3849C5.33242 38.5362 6.00756 38.8999 6.53864 39.431C7.06972 39.9621 7.43344 40.6372 7.58478 41.3729Z" fill="black"/>
<path d="M22.9848 40.6068C21.4695 40.6068 19.9882 40.1575 18.7283 39.3156C17.4683 38.4738 16.4863 37.2772 15.9064 35.8772C15.3266 34.4773 15.1748 32.9368 15.4705 31.4506C15.7661 29.9644 16.4958 28.5992 17.5673 27.5277C18.6388 26.4562 20.0039 25.7265 21.4901 25.4309C22.9763 25.1353 24.5168 25.287 25.9168 25.8669C27.3168 26.4468 28.5133 27.4288 29.3552 28.6887C30.1971 29.9487 30.6464 31.43 30.6464 32.9453C30.6442 34.9766 29.8363 36.924 28.3999 38.3604C26.9636 39.7967 25.0161 40.6046 22.9848 40.6068ZM22.9848 26.816C21.7726 26.816 20.5875 27.1755 19.5796 27.849C18.5716 28.5225 17.786 29.4797 17.3221 30.5997C16.8582 31.7197 16.7368 32.9521 16.9733 34.141C17.2098 35.33 17.7936 36.4221 18.6508 37.2793C19.508 38.1365 20.6001 38.7203 21.7891 38.9568C22.978 39.1933 24.2104 39.0719 25.3304 38.608C26.4504 38.1441 27.4076 37.3585 28.0811 36.3505C28.7546 35.3426 29.1141 34.1575 29.1141 32.9453C29.1123 31.3203 28.4659 29.7623 27.3168 28.6132C26.1678 27.4642 24.6098 26.8178 22.9848 26.816Z" fill="black"/>
<path d="M22.985 32.179C22.8335 32.179 22.6853 32.134 22.5593 32.0499C22.4333 31.9657 22.3351 31.846 22.2772 31.706C22.2192 31.566 22.204 31.412 22.2336 31.2633C22.2631 31.1147 22.3361 30.9782 22.4432 30.8711C22.5504 30.7639 22.6869 30.6909 22.8355 30.6614C22.9841 30.6318 23.1382 30.647 23.2782 30.705C23.4182 30.763 23.5378 30.8612 23.622 30.9872C23.7062 31.1132 23.7512 31.2613 23.7512 31.4128C23.7512 31.616 23.8319 31.8109 23.9756 31.9546C24.1192 32.0983 24.3141 32.179 24.5173 32.179C24.7205 32.179 24.9154 32.0983 25.0591 31.9546C25.2027 31.8109 25.2835 31.616 25.2835 31.4128C25.2815 30.9391 25.1332 30.4776 24.8589 30.0914C24.5847 29.7052 24.1978 29.4132 23.7512 29.2553V28.3482C23.7512 28.145 23.6704 27.9501 23.5268 27.8064C23.3831 27.6628 23.1882 27.582 22.985 27.582C22.7818 27.582 22.5869 27.6628 22.4432 27.8064C22.2996 27.9501 22.2188 28.145 22.2188 28.3482V29.2553C21.7081 29.4352 21.2774 29.7901 21.0032 30.2571C20.729 30.7241 20.6289 31.2731 20.7207 31.8068C20.8125 32.3405 21.0902 32.8245 21.5046 33.1731C21.919 33.5217 22.4435 33.7123 22.985 33.7113C23.1365 33.7113 23.2847 33.7562 23.4106 33.8404C23.5366 33.9246 23.6348 34.0443 23.6928 34.1843C23.7508 34.3243 23.766 34.4783 23.7364 34.6269C23.7069 34.7755 23.6339 34.9121 23.5268 35.0192C23.4196 35.1264 23.2831 35.1993 23.1345 35.2289C22.9858 35.2584 22.8318 35.2433 22.6918 35.1853C22.5518 35.1273 22.4321 35.0291 22.348 34.9031C22.2638 34.7771 22.2188 34.629 22.2188 34.4774C22.2188 34.2743 22.1381 34.0794 21.9944 33.9357C21.8508 33.792 21.6559 33.7113 21.4527 33.7113C21.2495 33.7113 21.0546 33.792 20.9109 33.9357C20.7672 34.0794 20.6865 34.2743 20.6865 34.4774C20.6885 34.9511 20.8368 35.4126 21.111 35.7988C21.3853 36.185 21.7722 36.4771 22.2188 36.635V37.5421C22.2188 37.7453 22.2996 37.9402 22.4432 38.0838C22.5869 38.2275 22.7818 38.3082 22.985 38.3082C23.1882 38.3082 23.3831 38.2275 23.5268 38.0838C23.6704 37.9402 23.7512 37.7453 23.7512 37.5421V36.635C24.2619 36.455 24.6926 36.1002 24.9668 35.6332C25.241 35.1662 25.3411 34.6172 25.2493 34.0835C25.1575 33.5498 24.8798 33.0658 24.4654 32.7172C24.051 32.3686 23.5265 32.178 22.985 32.179Z" fill="black"/>
<path d="M15.3229 10.7266C15.1714 10.7266 15.0232 10.6817 14.8972 10.5975C14.7712 10.5133 14.673 10.3936 14.615 10.2536C14.5571 10.1136 14.5419 9.95958 14.5715 9.81096C14.601 9.66234 14.674 9.52582 14.7811 9.41867C14.8883 9.31152 15.0248 9.23855 15.1734 9.20899C15.322 9.17943 15.4761 9.1946 15.6161 9.25259C15.7561 9.31058 15.8757 9.40878 15.9599 9.53477C16.0441 9.66077 16.089 9.8089 16.089 9.96043C16.089 10.1636 16.1698 10.3585 16.3134 10.5022C16.4571 10.6459 16.652 10.7266 16.8552 10.7266C17.0584 10.7266 17.2533 10.6459 17.397 10.5022C17.5406 10.3585 17.6214 10.1636 17.6214 9.96043C17.6194 9.48674 17.4711 9.02523 17.1968 8.63904C16.9226 8.25284 16.5356 7.96082 16.089 7.80293V6.8958C16.089 6.6926 16.0083 6.49772 15.8646 6.35404C15.721 6.21036 15.5261 6.12964 15.3229 6.12964C15.1197 6.12964 14.9248 6.21036 14.7811 6.35404C14.6374 6.49772 14.5567 6.6926 14.5567 6.8958V7.80293C14.0459 7.98284 13.6153 8.33771 13.3411 8.8047C13.0669 9.27169 12.9668 9.82066 13.0586 10.3544C13.1504 10.8881 13.4281 11.3721 13.8425 11.7207C14.2569 12.0693 14.7813 12.2599 15.3229 12.2589C15.4744 12.2589 15.6225 12.3038 15.7485 12.388C15.8745 12.4722 15.9727 12.5919 16.0307 12.7319C16.0887 12.8719 16.1039 13.0259 16.0743 13.1745C16.0448 13.3231 15.9718 13.4597 15.8646 13.5668C15.7575 13.674 15.621 13.7469 15.4724 13.7765C15.3237 13.8061 15.1697 13.7909 15.0297 13.7329C14.8897 13.6749 14.77 13.5767 14.6858 13.4507C14.6017 13.3247 14.5567 13.1766 14.5567 13.0251C14.5567 12.8219 14.476 12.627 14.3323 12.4833C14.1886 12.3396 13.9938 12.2589 13.7906 12.2589C13.5874 12.2589 13.3925 12.3396 13.2488 12.4833C13.1051 12.627 13.0244 12.8219 13.0244 13.0251C13.0264 13.4987 13.1746 13.9603 13.4489 14.3464C13.7232 14.7326 14.1101 15.0247 14.5567 15.1826V16.0897C14.5567 16.2929 14.6374 16.4878 14.7811 16.6314C14.9248 16.7751 15.1197 16.8558 15.3229 16.8558C15.5261 16.8558 15.721 16.7751 15.8646 16.6314C16.0083 16.4878 16.089 16.2929 16.089 16.0897V15.1826C16.5998 15.0026 17.0305 14.6478 17.3047 14.1808C17.5789 13.7138 17.6789 13.1648 17.5872 12.6311C17.4954 12.0974 17.2177 11.6134 16.8033 11.2648C16.3889 10.9162 15.8644 10.7256 15.3229 10.7266Z" fill="black"/>
<path d="M37.5417 33.7113H34.4771C34.2739 33.7113 34.079 33.6306 33.9353 33.4869C33.7917 33.3432 33.7109 33.1483 33.7109 32.9451C33.7109 32.7419 33.7917 32.547 33.9353 32.4034C34.079 32.2597 34.2739 32.179 34.4771 32.179H37.5417C37.7449 32.179 37.9398 32.2597 38.0835 32.4034C38.2272 32.547 38.3079 32.7419 38.3079 32.9451C38.3079 33.1483 38.2272 33.3432 38.0835 33.4869C37.9398 33.6306 37.7449 33.7113 37.5417 33.7113Z" fill="black"/>
<path d="M11.4929 33.7113H8.42827C8.22507 33.7113 8.03019 33.6306 7.88651 33.4869C7.74283 33.3432 7.66211 33.1483 7.66211 32.9451C7.66211 32.7419 7.74283 32.547 7.88651 32.4034C8.03019 32.2597 8.22507 32.179 8.42827 32.179H11.4929C11.6961 32.179 11.891 32.2597 12.0347 32.4034C12.1783 32.547 12.2591 32.7419 12.2591 32.9451C12.2591 33.1483 12.1783 33.3432 12.0347 33.4869C11.891 33.6306 11.6961 33.7113 11.4929 33.7113Z" fill="black"/>
<path d="M45.2033 19.9205H37.5417V0.766528C37.5418 0.627877 37.5042 0.491807 37.433 0.372823C37.3619 0.253838 37.2597 0.1564 37.1375 0.0908958C37.0153 0.0253913 36.8776 -0.00572435 36.7391 0.000866179C36.6006 0.00745671 36.4665 0.0515063 36.3511 0.128319L34.4725 1.37945L32.5939 0.128319C32.4681 0.0446433 32.3205 3.41002e-07 32.1694 3.41002e-07C32.0184 3.41002e-07 31.8707 0.0446433 31.745 0.128319L29.8702 1.37945L27.9969 0.130617C27.8711 0.0467793 27.7233 0.00204364 27.5721 0.00204364C27.4209 0.00204364 27.2731 0.0467793 27.1473 0.130617L25.2732 1.37945L23.403 0.130617C23.2771 0.0466167 23.1292 0.00178828 22.9778 0.00178828C22.8265 0.00178828 22.6785 0.0466167 22.5526 0.130617L20.6794 1.37945L18.8053 0.130617C18.6795 0.0467793 18.5317 0.00204364 18.3805 0.00204364C18.2293 0.00204364 18.0815 0.0467793 17.9557 0.130617L16.0832 1.37945L14.2122 0.129085C14.0863 0.0450843 13.9384 0.000255982 13.787 0.000255982C13.6357 0.000255982 13.4877 0.0450843 13.3618 0.129085L11.4924 1.37945L9.62141 0.130617C9.50611 0.0530874 9.37189 0.00837086 9.23313 0.00125434C9.09437 -0.00586217 8.95629 0.0248892 8.83366 0.0902168C8.71103 0.155544 8.60848 0.252989 8.53698 0.37212C8.46547 0.491252 8.42771 0.627585 8.42773 0.766528V19.9205H0.766158C0.56296 19.9205 0.368085 20.0012 0.224402 20.1449C0.0807199 20.2886 0 20.4834 0 20.6866V45.2037C0 45.4069 0.0807199 45.6017 0.224402 45.7454C0.368085 45.8891 0.56296 45.9698 0.766158 45.9698H45.2033C45.4065 45.9698 45.6014 45.8891 45.745 45.7454C45.8887 45.6017 45.9695 45.4069 45.9695 45.2037V20.6866C45.9695 20.4834 45.8887 20.2886 45.745 20.1449C45.6014 20.0012 45.4065 19.9205 45.2033 19.9205ZM9.96005 2.19924L11.0641 2.93629C11.19 3.02029 11.3379 3.06512 11.4893 3.06512C11.6407 3.06512 11.7886 3.02029 11.9145 2.93629L13.7908 1.68592L15.6618 2.93475C15.7877 3.01875 15.9357 3.06358 16.087 3.06358C16.2384 3.06358 16.3863 3.01875 16.5122 2.93475L18.3809 1.68592L20.2541 2.93475C20.38 3.01859 20.5278 3.06333 20.679 3.06333C20.8302 3.06333 20.978 3.01859 21.1038 2.93475L22.9771 1.68592L24.8488 2.93475C24.9746 3.01859 25.1224 3.06333 25.2736 3.06333C25.4248 3.06333 25.5726 3.01859 25.6985 2.93475L27.5717 1.68592L29.4457 2.93475C29.5716 3.01859 29.7194 3.06333 29.8706 3.06333C30.0218 3.06333 30.1696 3.01859 30.2954 2.93475L32.1694 1.68592L34.048 2.93705C34.1738 3.02073 34.3215 3.06537 34.4725 3.06537C34.6235 3.06537 34.7712 3.02073 34.8969 2.93705L36.0094 2.19694V19.9205H9.96005V2.19924ZM44.4371 44.4375H1.53232V21.4528H44.4371V44.4375Z" fill="black"/>
<path d="M33.7113 9.19418H19.9205C19.7173 9.19418 19.5224 9.11346 19.3787 8.96978C19.235 8.8261 19.1543 8.63122 19.1543 8.42802C19.1543 8.22483 19.235 8.02995 19.3787 7.88627C19.5224 7.74259 19.7173 7.66187 19.9205 7.66187H33.7113C33.9145 7.66187 34.1094 7.74259 34.253 7.88627C34.3967 8.02995 34.4774 8.22483 34.4774 8.42802C34.4774 8.63122 34.3967 8.8261 34.253 8.96978C34.1094 9.11346 33.9145 9.19418 33.7113 9.19418Z" fill="black"/>
<path d="M33.7113 12.2589H19.9205C19.7173 12.2589 19.5224 12.1782 19.3787 12.0345C19.235 11.8908 19.1543 11.6959 19.1543 11.4927C19.1543 11.2895 19.235 11.0946 19.3787 10.951C19.5224 10.8073 19.7173 10.7266 19.9205 10.7266H33.7113C33.9145 10.7266 34.1094 10.8073 34.253 10.951C34.3967 11.0946 34.4774 11.2895 34.4774 11.4927C34.4774 11.6959 34.3967 11.8908 34.253 12.0345C34.1094 12.1782 33.9145 12.2589 33.7113 12.2589Z" fill="black"/>
<path d="M33.7113 15.3236H19.9205C19.7173 15.3236 19.5224 15.2429 19.3787 15.0992C19.235 14.9555 19.1543 14.7606 19.1543 14.5574C19.1543 14.3542 19.235 14.1593 19.3787 14.0157C19.5224 13.872 19.7173 13.7913 19.9205 13.7913H33.7113C33.9145 13.7913 34.1094 13.872 34.253 14.0157C34.3967 14.1593 34.4774 14.3542 34.4774 14.5574C34.4774 14.7606 34.3967 14.9555 34.253 15.0992C34.1094 15.2429 33.9145 15.3236 33.7113 15.3236Z" fill="black"/>
<path d="M33.7108 18.3883H27.5816C27.3784 18.3883 27.1835 18.3076 27.0398 18.1639C26.8961 18.0202 26.8154 17.8253 26.8154 17.6221C26.8154 17.4189 26.8961 17.224 27.0398 17.0804C27.1835 16.9367 27.3784 16.856 27.5816 16.856H33.7108C33.914 16.856 34.1089 16.9367 34.2526 17.0804C34.3963 17.224 34.477 17.4189 34.477 17.6221C34.477 17.8253 34.3963 18.0202 34.2526 18.1639C34.1089 18.3076 33.914 18.3883 33.7108 18.3883Z" fill="black"/>
</svg>
