<svg width="275" height="235" viewBox="0 0 275 235" fill="none" xmlns="http://www.w3.org/2000/svg">
<g opacity="0.15">
<path d="M149.436 335.841H208.621L286.408 160.217H227.222L149.436 335.841Z" fill="#C72B22"/>
<path d="M115.022 172.257H142.686L161.474 129.847H133.81L115.022 172.257Z" fill="#EBEBEB"/>
<path d="M190.564 41.4738H358.295L472.178 -215.67H304.448L190.564 41.4738Z" fill="#F7DA06"/>
<path d="M163.225 84.1045H171.709L180.278 64.7192H171.811L163.225 84.1045Z" fill="#F7DA06"/>
<path d="M262.979 166.985H356.527L420.048 310.402H326.5L262.979 166.985Z" fill="#F6DA06"/>
<path d="M190.565 202.457L192.079 199.039H153.619L152.105 202.457H190.565Z" fill="#EBEBEB"/>
<path d="M193.71 195.332L195.224 191.914H156.781L155.268 195.332H193.71Z" fill="#EBEBEB"/>
<path d="M196.873 188.207L198.387 184.789H159.944L158.431 188.207H196.873Z" fill="#EBEBEB"/>
<path d="M200.036 181.082L201.549 177.664H163.089L161.576 181.082H200.036Z" fill="#EBEBEB"/>
<path d="M203.181 173.957L204.694 170.539H166.252L164.738 173.957H203.181Z" fill="#EBEBEB"/>
<path d="M206.343 166.815L207.856 163.397H169.414L167.9 166.815H206.343Z" fill="#EBEBEB"/>
<path d="M209.507 159.69L211.02 156.272H172.56L171.047 159.69H209.507Z" fill="#EBEBEB"/>
<path d="M212.652 152.565L214.165 149.147H175.722L174.209 152.565H212.652Z" fill="#EBEBEB"/>
<path d="M215.814 145.423L217.327 142.022H178.884L177.371 145.423H215.814Z" fill="#EBEBEB"/>
<path d="M218.976 138.299L220.49 134.881H182.03L180.517 138.299H218.976Z" fill="#EBEBEB"/>
<path d="M222.139 131.174L223.635 127.756H185.192L183.679 131.174H222.139Z" fill="#EBEBEB"/>
<path d="M225.285 124.049L226.798 120.631H188.355L186.842 124.049H225.285Z" fill="#EBEBEB"/>
<path d="M228.447 116.924L229.96 113.506H191.517L190.004 116.924H228.447Z" fill="#EBEBEB"/>
<path d="M113.152 236.908L115.312 232.045H60.5802L58.4209 236.908H113.152Z" fill="#C72B22"/>
<path d="M117.658 226.756L119.817 221.893H65.0691L62.9268 226.756H117.658Z" fill="#C72B22"/>
<path d="M122.146 216.605L124.306 211.741H69.5743L67.415 216.605H122.146Z" fill="#C72B22"/>
<path d="M124 101.891L127.213 94.6475H45.6178L42.4043 101.891H124Z" fill="#EDEDED"/>
<path d="M130.716 86.7575L133.929 79.4966H52.317L49.1035 86.7575H130.716Z" fill="#EDEDED"/>
<path d="M137.415 71.6234L140.629 64.3794H59.0162L55.8027 71.6234H137.415Z" fill="#EDEDED"/>
<path d="M144.113 56.5061L147.327 49.2451H65.7145L62.501 56.5061H144.113Z" fill="#EDEDED"/>
<path d="M150.813 41.3723L154.026 34.1113H72.4137L69.2002 41.3723H150.813Z" fill="#EDEDED"/>
<path d="M157.512 26.2381L160.725 18.9941H79.1129L75.8994 26.2381H157.512Z" fill="#EDEDED"/>
<path d="M164.211 11.1209L167.424 3.85986H85.8121L82.5986 11.1209H164.211Z" fill="#EDEDED"/>
<path d="M248.101 225.651L252.539 215.635H139.897L135.459 225.651H248.101Z" fill="#F7DA06"/>
<path d="M241.471 42.7153L242.627 45.351H213.042L211.869 42.7153H241.471Z" fill="#C72B22"/>
<path d="M243.902 48.208L245.058 50.8267H215.457L214.301 48.208H243.902Z" fill="#C72B22"/>
<path d="M246.333 53.7002L247.489 56.3189H217.888L216.731 53.7002H246.333Z" fill="#C72B22"/>
<path d="M248.748 59.1758L249.921 61.8116H220.319L219.163 59.1758H248.748Z" fill="#C72B22"/>
<path d="M251.179 64.6685L252.352 67.2872H222.751L221.595 64.6685H251.179Z" fill="#C72B22"/>
<path d="M253.611 70.1606L254.784 72.7793H225.183L224.026 70.1606H253.611Z" fill="#C72B22"/>
<path d="M256.042 75.6362L257.215 78.272H227.613L226.457 75.6362H256.042Z" fill="#C72B22"/>
<path d="M258.473 81.1289L259.646 83.7476H230.045L228.889 81.1289H258.473Z" fill="#C72B22"/>
<path d="M260.905 86.6211L262.078 89.2398H232.476L231.32 86.6211H260.905Z" fill="#C72B22"/>
<path d="M263.336 92.0967L264.509 94.7324H234.908L233.734 92.0967H263.336Z" fill="#C72B22"/>
<path d="M265.767 97.5894L266.924 100.208H237.339L236.166 97.5894H265.767Z" fill="#C72B22"/>
<path d="M268.199 103.082L269.355 105.7H239.771L238.598 103.082H268.199Z" fill="#C72B22"/>
<path d="M270.63 108.557L271.786 111.193H242.202L241.028 108.557H270.63Z" fill="#C72B22"/>
<path d="M325.616 2.15918L328.932 9.64122H244.718L241.402 2.15918H325.616Z" fill="#C72B22"/>
<path d="M332.536 17.7695L335.852 25.2516H251.621L248.306 17.7695H332.536Z" fill="#C72B22"/>
<path d="M339.456 33.3965L342.772 40.8786H258.541L255.226 33.3965H339.456Z" fill="#C72B22"/>
<path d="M346.359 49.0068L349.675 56.4888H265.461L262.146 49.0068H346.359Z" fill="#C72B22"/>
<path d="M353.28 64.6172L356.595 72.0992H272.364L269.049 64.6172H353.28Z" fill="#C72B22"/>
</g>
</svg>
