<svg width="80" height="15" viewBox="0 0 80 15" fill="none" xmlns="http://www.w3.org/2000/svg">
<path fill-rule="evenodd" clip-rule="evenodd" d="M30.8596 3.49558H28.4193L25.8419 5.6029L24.6188 6.60255L23.2643 7.71002V3.49072H21.6191V11.7384H23.2643V9.70448L25.5952 7.80326L28.7813 11.7384H30.8158L26.8126 6.80342L30.8596 3.49558ZM39.9261 10.2783L36.0599 3.50081L32.1937 10.2783L31.3547 11.7533H33.2025L34.0471 10.2783L36.0599 6.74493L38.0724 10.2783L38.917 11.7533H40.7651L39.9261 10.2783ZM44.8896 4.97096H49.5071V3.50081H44.8896C42.3395 3.50081 40.2721 5.34822 40.2721 7.62706C40.2721 9.90591 42.3395 11.7533 44.8896 11.7533H49.5071V10.2832H44.8896C43.2498 10.2832 41.9172 9.09236 41.9172 7.62706C41.9172 6.16177 43.2498 4.97096 44.8896 4.97096ZM60.0656 3.49595H57.6253L55.0479 5.60308L53.8248 6.60293L52.4703 7.7104V3.4911H50.8251V11.7386H52.4703V9.70486L54.8012 7.80364L57.9873 11.7386H60.0217L56.0186 6.80379L60.0656 3.49595ZM69.1321 10.2783L65.2659 3.50081L61.3996 10.2783L60.5605 11.7533H62.4085L63.2531 10.2783L65.2659 6.74493L67.2784 10.2783L68.123 11.7533H69.971L69.1321 10.2783ZM75.3882 3.50324H70.7709V11.7509H75.3882C76.6605 11.7509 77.8121 11.2903 78.6457 10.5405C78.739 10.4571 78.8267 10.3689 78.9089 10.2807C79.5944 9.56528 80.0002 8.6342 80.0002 7.62463C80.0002 5.34598 77.9328 3.50324 75.3882 3.50324ZM75.3882 10.2807H72.416V4.97339H75.3882C77.0225 4.97339 78.3551 6.1642 78.3551 7.62463C78.3551 9.08993 77.0225 10.2807 75.3882 10.2807Z" fill="black"/>
<path fill-rule="evenodd" clip-rule="evenodd" d="M0.842773 8.65576H4.2127L9.43585 14.8011H0.926998L0.842773 8.65576Z" fill="#C93027"/>
<path fill-rule="evenodd" clip-rule="evenodd" d="M6.23421 8.58902L12.2157 14.7346L20.8087 14.8013L13.3109 7.65401L20.9772 0.372952H12.6369L8.42462 4.44763V0.306152H0L11.289 8.65591L6.23421 8.58902Z" fill="black"/>
<rect x="33" y="9" width="6" height="1" fill="black"/>
<rect x="63" y="9" width="5" height="1" fill="black"/>
</svg>
