<svg width="17" height="17" viewBox="0 0 17 17" fill="none" xmlns="http://www.w3.org/2000/svg">
<path d="M8.5 0C3.80558 0 0 3.80558 0 8.50003C0 10.2766 0.545395 11.9257 1.47744 13.2896L0.360951 16.639L3.71038 15.5226C5.0743 16.4546 6.72333 17 8.5 17C13.1944 17 17 13.1944 17 8.50003C17 3.80558 13.1944 0 8.5 0Z" fill="#FADD05"/>
<path d="M12.4763 11.0417C11.8346 10.4 11.1473 9.85983 11.1473 9.85983L10.146 10.8612L6.13926 6.85444L7.14063 5.85311C7.14063 5.85311 6.60048 5.1658 5.9588 4.52412C5.31712 3.88247 4.62985 3.34229 4.62985 3.34229C4.62985 3.34229 3.42998 4.44609 3.3493 5.32152C3.24132 6.49336 4.48173 8.62387 6.42916 10.5713C8.37659 12.5187 10.5071 13.7591 11.6789 13.6511C12.5544 13.5704 13.6581 12.3706 13.6581 12.3706C13.6581 12.3706 13.118 11.6834 12.4763 11.0417Z" fill="#1B4145"/>
</svg>
