<svg width="640" height="490" viewBox="0 0 640 490" fill="none" xmlns="http://www.w3.org/2000/svg">
<g opacity="0.3">
<path opacity="0.3" d="M123.344 -30.957H63.6746L-14.752 146.113H44.9174L123.344 -30.957Z" fill="#F6DA06"/>
<path opacity="0.3" d="M85.8298 320.751H76.9475L65.2783 347.109H74.1607L85.8298 320.751Z" fill="#002E51"/>
<path opacity="0.3" d="M158.034 133.971H130.14L111.204 176.721H139.098L158.034 133.971Z" fill="#EBEBEB"/>
<path opacity="0.3" d="M81.8851 265.81H-87.21L-202.031 525.057H-32.9361L81.8851 265.81Z" fill="#EBEBEB"/>
<path opacity="0.3" d="M109.435 222.831H100.896L92.2432 242.379H100.782L109.435 222.831Z" fill="#00CAF9"/>
<path opacity="0.3" d="M128.638 587.419H40.5531L-75.2354 326.021H12.8626L128.638 587.419Z" fill="#002E51"/>
<path opacity="0.3" d="M8.87924 139.278H-85.4287L-149.463 -5.3125H-55.1549L8.87924 139.278Z" fill="#00CAF9"/>
<g opacity="0.3">
<g opacity="0.3">
<path opacity="0.3" d="M81.8844 103.516L80.3574 106.952H119.119L120.646 103.516H81.8844Z" fill="#EBEBEB"/>
</g>
<g opacity="0.3">
<path opacity="0.3" d="M78.7038 110.693L77.1768 114.142H115.938L117.465 110.693H78.7038Z" fill="#EBEBEB"/>
</g>
<g opacity="0.3">
<path opacity="0.3" d="M75.5221 117.884L73.9951 121.333H112.757L114.284 117.884H75.5221Z" fill="#EBEBEB"/>
</g>
<g opacity="0.3">
<path opacity="0.3" d="M72.3405 125.075L70.8135 128.511H109.575L111.102 125.075H72.3405Z" fill="#EBEBEB"/>
</g>
<g opacity="0.3">
<path opacity="0.3" d="M69.1598 132.253L67.6328 135.702H106.394L107.921 132.253H69.1598Z" fill="#EBEBEB"/>
</g>
<g opacity="0.3">
<path opacity="0.3" d="M65.9655 139.444L64.4512 142.893H103.213L104.74 139.444H65.9655Z" fill="#EBEBEB"/>
</g>
<g opacity="0.3">
<path opacity="0.3" d="M62.7839 146.634L61.2695 150.071H100.031L101.558 146.634H62.7839Z" fill="#EBEBEB"/>
</g>
<g opacity="0.3">
<path opacity="0.3" d="M59.6032 153.812L58.0889 157.262H96.8504L98.3647 153.812H59.6032Z" fill="#EBEBEB"/>
</g>
<g opacity="0.3">
<path opacity="0.3" d="M56.4216 161.003L54.8945 164.452H93.6561L95.1832 161.003H56.4216Z" fill="#EBEBEB"/>
</g>
<g opacity="0.3">
<path opacity="0.3" d="M53.24 168.194L51.7129 171.63H90.4744L92.0015 168.194H53.24Z" fill="#EBEBEB"/>
</g>
<g opacity="0.3">
<path opacity="0.3" d="M50.0583 175.372L48.5312 178.821H87.2928L88.8198 175.372H50.0583Z" fill="#EBEBEB"/>
</g>
<g opacity="0.3">
<path opacity="0.3" d="M46.8777 182.562L45.3506 186.011H84.1122L85.6392 182.562H46.8777Z" fill="#EBEBEB"/>
</g>
<g opacity="0.3">
<path opacity="0.3" d="M43.696 189.753L42.1689 193.19H80.9305L82.4575 189.753H43.696Z" fill="#EBEBEB"/>
</g>
</g>
<g opacity="0.3">
<g opacity="0.3">
<path opacity="0.3" d="M13.333 442.498L10.4316 449.052H84.1244L87.0258 442.498H13.333Z" fill="#EBEBEB"/>
</g>
<g opacity="0.3">
<path opacity="0.3" d="M7.27541 456.166L4.37402 462.708H78.0795L80.9681 456.166H7.27541Z" fill="#EBEBEB"/>
</g>
<g opacity="0.3">
<path opacity="0.3" d="M1.23147 469.835L-1.66992 476.377H72.0228L74.9242 469.835H1.23147Z" fill="#EBEBEB"/>
</g>
<g opacity="0.3">
<path opacity="0.3" d="M-4.82615 483.491L-7.72754 490.033H65.9653L68.8667 483.491H-4.82615Z" fill="#EBEBEB"/>
</g>
</g>
<g opacity="0.3">
<g opacity="0.3">
<path opacity="0.3" d="M191.629 -2.81787L189.466 2.08199H244.643L246.819 -2.81787H191.629Z" fill="#002E51"/>
</g>
<g opacity="0.3">
<path opacity="0.3" d="M187.099 7.40186L184.936 12.3017H240.113L242.289 7.40186H187.099Z" fill="#002E51"/>
</g>
<g opacity="0.3">
<path opacity="0.3" d="M182.569 17.6475L180.393 22.5473H235.583L237.746 17.6475H182.569Z" fill="#002E51"/>
</g>
<g opacity="0.3">
<path opacity="0.3" d="M178.038 27.8667L175.862 32.7666H231.052L233.228 27.8667H178.038Z" fill="#002E51"/>
</g>
<g opacity="0.3">
<path opacity="0.3" d="M173.508 38.0996L171.345 42.9995H226.522L228.698 38.0996H173.508Z" fill="#002E51"/>
</g>
<g opacity="0.3">
<path opacity="0.3" d="M168.978 48.332L166.802 53.2319H221.992L224.155 48.332H168.978Z" fill="#002E51"/>
</g>
<g opacity="0.3">
<path opacity="0.3" d="M164.448 58.5645L162.271 63.4643H217.461L219.625 58.5645H164.448Z" fill="#002E51"/>
</g>
<g opacity="0.3">
<path opacity="0.3" d="M159.917 68.7842L157.741 73.6968H212.931L215.095 68.7842H159.917Z" fill="#002E51"/>
</g>
<g opacity="0.3">
<path opacity="0.3" d="M155.387 79.0293L153.211 83.9292H208.388L210.564 79.0293H155.387Z" fill="#002E51"/>
</g>
<g opacity="0.3">
<path opacity="0.3" d="M150.857 89.249L148.681 94.1616H203.858L206.034 89.249H150.857Z" fill="#002E51"/>
</g>
</g>
<g opacity="0.3">
<g opacity="0.3">
<path opacity="0.3" d="M148.986 204.898L145.741 212.216H228.011L231.256 204.898H148.986Z" fill="#EDEDED"/>
</g>
<g opacity="0.3">
<path opacity="0.3" d="M142.217 220.158L138.984 227.476H221.254L224.486 220.158H142.217Z" fill="#EDEDED"/>
</g>
<g opacity="0.3">
<path opacity="0.3" d="M135.472 235.417L132.227 242.723H214.496L217.741 235.417H135.472Z" fill="#EDEDED"/>
</g>
<g opacity="0.3">
<path opacity="0.3" d="M128.715 250.665L125.482 257.97H207.752L210.984 250.665H128.715Z" fill="#EDEDED"/>
</g>
<g opacity="0.3">
<path opacity="0.3" d="M121.957 265.924L118.712 273.229H200.982L204.227 265.924H121.957Z" fill="#EDEDED"/>
</g>
<g opacity="0.3">
<path opacity="0.3" d="M115.2 281.171L111.968 288.476H194.238L197.47 281.171H115.2Z" fill="#EDEDED"/>
</g>
<g opacity="0.3">
<path opacity="0.3" d="M108.443 296.418L105.211 303.723H187.481L190.726 296.418H108.443Z" fill="#EDEDED"/>
</g>
<g opacity="0.3">
<path opacity="0.3" d="M101.685 311.677L98.4531 318.995H180.723L183.955 311.677H101.685Z" fill="#EDEDED"/>
</g>
<g opacity="0.3">
<path opacity="0.3" d="M94.9413 326.924L91.6963 334.242H173.966L177.211 326.924H94.9413Z" fill="#EDEDED"/>
</g>
</g>
<g opacity="0.3">
<g opacity="0.3">
<path opacity="0.3" d="M61.1678 -4.07764L56.7012 6.0148H170.263L174.729 -4.07764H61.1678Z" fill="#00CAF9"/>
</g>
<g opacity="0.3">
<path opacity="0.3" d="M51.8534 16.9727L47.374 27.0651H160.935L165.415 16.9727H51.8534Z" fill="#00CAF9"/>
</g>
<g opacity="0.3">
<path opacity="0.3" d="M42.5252 38.0229L38.0586 48.1154H151.62L156.087 38.0229H42.5252Z" fill="#00CAF9"/>
</g>
<g opacity="0.3">
<path opacity="0.3" d="M33.1981 59.0859L28.7314 69.1784H142.293L146.759 59.0859H33.1981Z" fill="#00CAF9"/>
</g>
<g opacity="0.3">
<path opacity="0.3" d="M23.8699 80.1362L19.4033 90.2287H132.965L137.431 80.1362H23.8699Z" fill="#00CAF9"/>
</g>
</g>
<g opacity="0.3">
<g opacity="0.3">
<path opacity="0.3" d="M30.5633 264.55L29.3926 261.902H59.2336L60.4044 264.55H30.5633Z" fill="#002E51"/>
</g>
<g opacity="0.3">
<path opacity="0.3" d="M28.1199 259.026L26.9492 256.379H56.7775L57.9482 259.026H28.1199Z" fill="#002E51"/>
</g>
<g opacity="0.3">
<path opacity="0.3" d="M25.6639 253.49L24.4932 250.842H54.3215L55.5049 253.49H25.6639Z" fill="#002E51"/>
</g>
<g opacity="0.3">
<path opacity="0.3" d="M23.2206 247.966L22.0371 245.306H51.8782L53.049 247.966H23.2206Z" fill="#002E51"/>
</g>
<g opacity="0.3">
<path opacity="0.3" d="M20.7645 242.43L19.5938 239.783H49.4348L50.6055 242.43H20.7645Z" fill="#002E51"/>
</g>
<g opacity="0.3">
<path opacity="0.3" d="M18.3221 236.894L17.1387 234.247H46.9797L48.1505 236.894H18.3221Z" fill="#002E51"/>
</g>
<g opacity="0.3">
<path opacity="0.3" d="M15.8661 231.37L14.6953 228.71H44.5237L45.7072 231.37H15.8661Z" fill="#002E51"/>
</g>
<g opacity="0.3">
<path opacity="0.3" d="M13.4227 225.834L12.2393 223.187H42.0803L43.2511 225.834H13.4227Z" fill="#002E51"/>
</g>
<g opacity="0.3">
<path opacity="0.3" d="M10.9667 220.298L9.7959 217.65H39.6242L40.8077 220.298H10.9667Z" fill="#002E51"/>
</g>
<g opacity="0.3">
<path opacity="0.3" d="M8.5233 214.774L7.33984 212.114H37.1809L38.3517 214.774H8.5233Z" fill="#002E51"/>
</g>
<g opacity="0.3">
<path opacity="0.3" d="M6.06724 209.238L4.89648 206.591H34.7248L35.9083 209.238H6.06724Z" fill="#002E51"/>
</g>
<g opacity="0.3">
<path opacity="0.3" d="M3.61118 203.702L2.44043 201.055H32.2815L33.4522 203.702H3.61118Z" fill="#002E51"/>
</g>
<g opacity="0.3">
<path opacity="0.3" d="M1.16779 198.178L-0.00292969 195.531H29.8254L31.0089 198.178H1.16779Z" fill="#002E51"/>
</g>
</g>
<g opacity="0.3">
<g opacity="0.3">
<path opacity="0.3" d="M-54.2773 305.441L-57.6113 297.894H27.2926L30.6393 305.441H-54.2773Z" fill="#002E51"/>
</g>
<g opacity="0.3">
<path opacity="0.3" d="M-61.2372 289.711L-64.584 282.164H20.3199L23.6666 289.711H-61.2372Z" fill="#002E51"/>
</g>
<g opacity="0.3">
<path opacity="0.3" d="M-68.2108 273.955L-71.5576 266.408H13.3463L16.6931 273.955H-68.2108Z" fill="#002E51"/>
</g>
<g opacity="0.3">
<path opacity="0.3" d="M-75.1845 258.224L-78.5312 250.677H6.38538L9.71942 258.224H-75.1845Z" fill="#002E51"/>
</g>
<g opacity="0.3">
<path opacity="0.3" d="M-82.1581 242.481L-85.4922 234.934H-0.588303L2.74579 242.481H-82.1581Z" fill="#002E51"/>
</g>
</g>
<g opacity="0.3">
<g opacity="0.3">
<path opacity="0.3" d="M108.202 469.911L106.764 466.641H143.502L144.953 469.911H108.202Z" fill="#00CAF9"/>
</g>
<g opacity="0.3">
<path opacity="0.3" d="M105.185 463.102L103.747 459.832H140.485L141.936 463.102H105.185Z" fill="#00CAF9"/>
</g>
<g opacity="0.3">
<path opacity="0.3" d="M102.169 456.281L100.731 453.022H137.47L138.908 456.281H102.169Z" fill="#00CAF9"/>
</g>
<g opacity="0.3">
<path opacity="0.3" d="M99.1538 449.472L97.7158 446.214H134.454L135.892 449.472H99.1538Z" fill="#00CAF9"/>
</g>
<g opacity="0.3">
<path opacity="0.3" d="M96.1372 442.663L94.6992 439.405H131.437L132.875 442.663H96.1372Z" fill="#00CAF9"/>
</g>
<g opacity="0.3">
<path opacity="0.3" d="M93.1216 435.841L91.6709 432.583H128.422L129.86 435.841H93.1216Z" fill="#00CAF9"/>
</g>
<g opacity="0.3">
<path opacity="0.3" d="M90.106 429.033L88.6553 425.774H125.406L126.844 429.033H90.106Z" fill="#00CAF9"/>
</g>
<g opacity="0.3">
<path opacity="0.3" d="M87.0894 422.223L85.6387 418.965H122.39L123.828 422.223H87.0894Z" fill="#00CAF9"/>
</g>
<g opacity="0.3">
<path opacity="0.3" d="M84.0737 415.414L82.623 412.144H119.361L120.812 415.414H84.0737Z" fill="#00CAF9"/>
</g>
<g opacity="0.3">
<path opacity="0.3" d="M81.0581 408.606L79.6074 405.335H116.346L117.796 408.606H81.0581Z" fill="#00CAF9"/>
</g>
<g opacity="0.3">
<path opacity="0.3" d="M78.0425 401.797L76.5918 398.526H113.33L114.781 401.797H78.0425Z" fill="#00CAF9"/>
</g>
<g opacity="0.3">
<path opacity="0.3" d="M75.0259 394.975L73.5752 391.717H110.313L111.764 394.975H75.0259Z" fill="#00CAF9"/>
</g>
<g opacity="0.3">
<path opacity="0.3" d="M72.0103 388.166L70.5596 384.908H107.298L108.749 388.166H72.0103Z" fill="#00CAF9"/>
</g>
<g opacity="0.3">
<path opacity="0.3" d="M68.9947 381.357L67.5439 378.099H104.282L105.733 381.357H68.9947Z" fill="#00CAF9"/>
</g>
<g opacity="0.3">
<path opacity="0.3" d="M65.9653 374.548L64.5273 371.277H101.266L102.716 374.548H65.9653Z" fill="#00CAF9"/>
</g>
<g opacity="0.3">
<path opacity="0.3" d="M62.9497 367.74L61.5117 364.469H98.2499L99.7006 367.74H62.9497Z" fill="#00CAF9"/>
</g>
</g>
</g>
<g opacity="0.3">
<path d="M438.638 461.895H447.462L459.041 435.759H450.216L438.638 461.895Z" fill="#002E51"/>
<path d="M442.564 516.394H610.295L724.178 259.25H556.448L442.564 516.394Z" fill="#F7DA06"/>
<path d="M396.182 197.371H483.558L598.41 456.674H511.034L396.182 197.371Z" fill="#D13E35"/>
<path d="M621.993 373.76H672.44L738.733 523.434H688.286L621.993 373.76Z" fill="#C72B22"/>
<path d="M510.558 341.128L513.431 334.632H440.337L437.464 341.128H510.558Z" fill="#EBEBEB"/>
<path d="M516.56 327.575L519.433 321.08H446.339L443.466 327.575H516.56Z" fill="#EBEBEB"/>
<path d="M522.562 314.023L525.452 307.527H452.341L449.468 314.023H522.562Z" fill="#EBEBEB"/>
<path d="M528.564 300.47L531.454 293.974H458.343L455.47 300.47H528.564Z" fill="#EBEBEB"/>
<path d="M534.566 286.917L537.439 280.421H464.345L461.472 286.917H534.566Z" fill="#EBEBEB"/>
<path d="M540.585 273.364L543.458 266.869H470.347L467.474 273.364H540.585Z" fill="#EBEBEB"/>
<path d="M546.57 259.812L549.46 253.316H476.349L473.476 259.812H546.57Z" fill="#EBEBEB"/>
<path d="M552.572 246.259L555.462 239.763H482.351L479.478 246.259H552.572Z" fill="#EBEBEB"/>
<path d="M558.591 232.707L561.464 226.211H488.353L485.479 232.707H558.591Z" fill="#EBEBEB"/>
<path d="M564.593 219.154L567.466 212.658H494.355L491.481 219.154H564.593Z" fill="#EBEBEB"/>
<path d="M570.577 205.601L573.468 199.105H500.357L497.483 205.601H570.577Z" fill="#EBEBEB"/>
<path d="M576.595 192.048L579.469 185.553H506.375L503.484 192.048H576.595Z" fill="#EBEBEB"/>
<path d="M582.597 178.496L585.471 172H512.36L509.486 178.496H582.597Z" fill="#EBEBEB"/>
<path d="M607.473 271.749L608.408 269.624H584.451L583.499 271.749H607.473Z" fill="#C72B22"/>
<path d="M609.428 267.311L610.381 265.186H586.407L585.472 267.311H609.428Z" fill="#C72B22"/>
<path d="M611.4 262.856L612.352 260.73H588.379L587.443 262.856H611.4Z" fill="#C72B22"/>
<path d="M613.373 258.418L614.308 256.292H590.352L589.399 258.418H613.373Z" fill="#C72B22"/>
<path d="M615.328 253.979L616.28 251.854H592.323L591.371 253.979H615.328Z" fill="#C72B22"/>
<path d="M617.3 249.541L618.253 247.398H594.279L593.344 249.541H617.3Z" fill="#C72B22"/>
<path d="M619.273 245.086L620.208 242.96H596.252L595.316 245.086H619.273Z" fill="#C72B22"/>
<path d="M621.245 240.648L622.18 238.522H598.224L597.271 240.648H621.245Z" fill="#C72B22"/>
<path d="M623.2 236.21L624.152 234.084H600.195L599.243 236.21H623.2Z" fill="#C72B22"/>
<path d="M625.172 231.771L626.125 229.646H602.151L601.216 231.771H625.172Z" fill="#C72B22"/>
<path d="M627.145 227.333L628.08 225.19H604.123L603.171 227.333H627.145Z" fill="#C72B22"/>
<path d="M629.117 222.878L630.052 220.752H606.096L605.144 222.878H629.117Z" fill="#C72B22"/>
<path d="M631.072 218.44L632.024 216.314H608.05L607.115 218.44H631.072Z" fill="#C72B22"/>
<path d="M633.044 214.002L633.98 211.876H610.023L609.088 214.002H633.044Z" fill="#C72B22"/>
<path d="M635.017 209.546L635.952 207.421H611.995L611.043 209.546H635.017Z" fill="#C72B22"/>
<path d="M636.972 205.108L637.924 202.982H613.968L613.016 205.108H636.972Z" fill="#C72B22"/>
<path d="M416.211 486.041L419.424 478.78H337.812L334.599 486.041H416.211Z" fill="#EDEDED"/>
<path d="M422.91 470.89L426.123 463.646H344.528L341.314 470.89H422.91Z" fill="#EDEDED"/>
<path d="M429.609 455.773L432.822 448.512H351.227L348.014 455.773H429.609Z" fill="#EDEDED"/>
<path d="M577.616 477.08L580.932 484.562H496.718L493.402 477.08H577.616Z" fill="#C72B22"/>
<path d="M416.449 313.938L417.894 317.185H381.441L380.013 313.938H416.449Z" fill="#F7DA06"/>
<path d="M419.441 320.706L420.87 323.936H384.433L383.005 320.706H419.441Z" fill="#F7DA06"/>
<path d="M422.434 327.456L423.879 330.704H387.425L385.997 327.456H422.434Z" fill="#F7DA06"/>
<path d="M425.427 334.207L426.872 337.455H390.418L388.99 334.207H425.427Z" fill="#F7DA06"/>
<path d="M428.419 340.975L429.847 344.206H393.411L391.982 340.975H428.419Z" fill="#F7DA06"/>
<path d="M431.411 347.726L432.856 350.973H396.403L394.975 347.726H431.411Z" fill="#F7DA06"/>
<path d="M434.403 354.477L435.849 357.724H399.395L397.967 354.477H434.403Z" fill="#F7DA06"/>
<path d="M437.396 361.244L438.825 364.475H402.388L400.96 361.244H437.396Z" fill="#F7DA06"/>
<path d="M440.389 367.995L441.834 371.243H405.38L403.952 367.995H440.389Z" fill="#F7DA06"/>
<path d="M443.381 374.746L444.826 377.994H408.373L406.944 374.746H443.381Z" fill="#F7DA06"/>
<path d="M446.374 381.514L447.802 384.745H411.366L409.938 381.514H446.374Z" fill="#F7DA06"/>
<path d="M449.366 388.265L450.811 391.512H414.358L412.93 388.265H449.366Z" fill="#F7DA06"/>
<path d="M452.358 395.016L453.804 398.263H417.35L415.922 395.016H452.358Z" fill="#F7DA06"/>
<path d="M455.351 401.783L456.779 405.014H420.342L418.914 401.783H455.351Z" fill="#F7DA06"/>
<path d="M458.344 408.534L459.789 411.782H423.335L421.907 408.534H458.344Z" fill="#F7DA06"/>
<path d="M461.336 415.285L462.781 418.533H426.328L424.899 415.285H461.336Z" fill="#F7DA06"/>
</g>
</svg>
