<svg width="46" height="46" viewBox="0 0 46 46" fill="none" xmlns="http://www.w3.org/2000/svg">
<path d="M41.6332 31.5221C42.2547 30.871 42.6714 30.0518 42.8316 29.1661C42.9918 28.2804 42.8885 27.3671 42.5344 26.5396C42.1803 25.712 41.5911 25.0067 40.8398 24.5109C40.0885 24.0152 39.2082 23.751 38.3081 23.751C37.408 23.751 36.5277 24.0152 35.7764 24.5109C35.0251 25.0067 34.4358 25.712 34.0817 26.5396C33.7277 27.3671 33.6243 28.2804 33.7845 29.1661C33.9447 30.0518 34.3614 30.871 34.9829 31.5221C33.7627 31.7616 32.6634 32.417 31.8726 33.3767C31.0817 34.3363 30.6484 35.5406 30.6465 36.7841V45.2118C30.6465 45.415 30.7272 45.6099 30.8709 45.7536C31.0146 45.8972 31.2094 45.978 31.4126 45.978H45.2035C45.4067 45.978 45.6016 45.8972 45.7452 45.7536C45.8889 45.6099 45.9696 45.415 45.9696 45.2118V36.7841C45.9677 35.5406 45.5344 34.3363 44.7435 33.3767C43.9527 32.417 42.8534 31.7616 41.6332 31.5221ZM39.0742 32.9533V33.7194H37.5419V32.9533H39.0742ZM39.0374 41.0998L38.3081 41.83L37.5779 41.0998L38.2314 35.2518H38.3847L39.0374 41.0998ZM38.3081 25.2917C38.9142 25.2917 39.5067 25.4715 40.0107 25.8082C40.5147 26.1449 40.9075 26.6236 41.1394 27.1836C41.3714 27.7435 41.4321 28.3597 41.3138 28.9542C41.1956 29.5487 40.9037 30.0948 40.4751 30.5234C40.0465 30.952 39.5004 31.2438 38.9059 31.3621C38.3115 31.4803 37.6953 31.4196 37.1353 31.1877C36.5753 30.9557 36.0967 30.5629 35.7599 30.059C35.4232 29.555 35.2434 28.9625 35.2434 28.3563C35.2434 27.5436 35.5663 26.7641 36.141 26.1893C36.7158 25.6146 37.4953 25.2917 38.3081 25.2917ZM44.4373 44.4457H42.905V37.5502C42.905 37.347 42.8243 37.1522 42.6806 37.0085C42.5369 36.8648 42.342 36.7841 42.1388 36.7841C41.9356 36.7841 41.7408 36.8648 41.5971 37.0085C41.4534 37.1522 41.3727 37.347 41.3727 37.5502V44.4457H35.2434V37.5502C35.2434 37.347 35.1627 37.1522 35.019 37.0085C34.8753 36.8648 34.6805 36.7841 34.4773 36.7841C34.2741 36.7841 34.0792 36.8648 33.9355 37.0085C33.7918 37.1522 33.7111 37.347 33.7111 37.5502V44.4457H32.1788V36.7841C32.18 35.7685 32.584 34.7948 33.3022 34.0766C34.0203 33.3585 34.994 32.9545 36.0096 32.9533V33.7194C36.0102 33.9753 36.0749 34.2269 36.1978 34.4514C36.3206 34.6758 36.4977 34.8659 36.7129 35.0043L36.0142 41.2967C36.0016 41.4109 36.0148 41.5264 36.0529 41.6348C36.0909 41.7431 36.1529 41.8415 36.2341 41.9227L37.7664 43.455C37.9101 43.5986 38.1049 43.6793 38.3081 43.6793C38.5112 43.6793 38.7061 43.5986 38.8497 43.455L40.382 41.9227C40.4633 41.8415 40.5252 41.7431 40.5633 41.6348C40.6013 41.5264 40.6145 41.4109 40.6019 41.2967L39.9032 35.0043C40.1184 34.8659 40.2955 34.6758 40.4183 34.4514C40.5412 34.2269 40.6059 33.9753 40.6065 33.7194V32.9533C41.6221 32.9545 42.5958 33.3585 43.314 34.0766C44.0321 34.7948 44.4361 35.7685 44.4373 36.7841V44.4457Z" fill="black"/>
<path d="M41.633 7.77113C42.2545 7.12006 42.6712 6.30085 42.8314 5.41512C42.9916 4.52939 42.8883 3.61611 42.5342 2.78858C42.1801 1.96105 41.5909 1.25568 40.8396 0.759964C40.0883 0.264248 39.208 0 38.3079 0C37.4078 0 36.5275 0.264248 35.7762 0.759964C35.0249 1.25568 34.4356 1.96105 34.0816 2.78858C33.7275 3.61611 33.6241 4.52939 33.7843 5.41512C33.9445 6.30085 34.3612 7.12006 34.9827 7.77113C33.7625 8.0106 32.6632 8.66607 31.8724 9.62569C31.0816 10.5853 30.6482 11.7896 30.6463 13.0331V15.5614C29.5492 14.5746 28.1636 13.9672 26.6945 13.8291C27.4675 13.0886 28.0012 12.1336 28.2269 11.0872C28.4526 10.0407 28.36 8.95065 27.9609 7.95729C27.5619 6.96392 26.8747 6.11271 25.9878 5.5132C25.1009 4.91369 24.0549 4.59332 22.9843 4.59332C21.9138 4.59332 20.8678 4.91369 19.9809 5.5132C19.094 6.11271 18.4068 6.96392 18.0078 7.95729C17.6087 8.95065 17.5161 10.0407 17.7418 11.0872C17.9675 12.1336 18.5012 13.0886 19.2742 13.8291C17.8054 13.9673 16.42 14.5747 15.3232 15.5614V13.0331C15.3212 11.7896 14.8879 10.5853 14.0971 9.62569C13.3062 8.66607 12.2069 8.0106 10.9867 7.77113C11.6082 7.12006 12.0249 6.30085 12.1851 5.41512C12.3453 4.52939 12.242 3.61611 11.8879 2.78858C11.5338 1.96105 10.9446 1.25568 10.1933 0.759964C9.44197 0.264248 8.56168 0 7.66158 0C6.76147 0 5.88118 0.264248 5.12988 0.759964C4.37858 1.25568 3.78935 1.96105 3.43526 2.78858C3.08118 3.61611 2.97782 4.52939 3.13803 5.41512C3.29823 6.30085 3.71493 7.12006 4.33645 7.77113C3.11623 8.0106 2.01692 8.66607 1.22609 9.62569C0.435255 10.5853 0.00191236 11.7896 0 13.0331V21.4608C0 21.664 0.0807199 21.8589 0.224402 22.0026C0.368085 22.1463 0.56296 22.227 0.766158 22.227H13.0247V30.6547C13.0247 30.8579 13.1054 31.0528 13.2491 31.1965C13.3928 31.3402 13.5876 31.4209 13.7908 31.4209H16.8555V45.2117C16.8555 45.4149 16.9362 45.6098 17.0799 45.7535C17.2235 45.8972 17.4184 45.9779 17.6216 45.9779H28.3478C28.551 45.9779 28.7459 45.8972 28.8896 45.7535C29.0333 45.6098 29.114 45.4149 29.114 45.2117V31.4209H32.1786C32.3818 31.4209 32.5767 31.3402 32.7204 31.1965C32.8641 31.0528 32.9448 30.8579 32.9448 30.6547V22.227H45.2033C45.4065 22.227 45.6014 22.1463 45.745 22.0026C45.8887 21.8589 45.9695 21.664 45.9695 21.4608V13.0331C45.9675 11.7896 45.5342 10.5853 44.7434 9.62569C43.9525 8.66607 42.8532 8.0106 41.633 7.77113ZM38.3079 1.54074C38.914 1.54074 39.5065 1.72048 40.0105 2.05722C40.5145 2.39397 40.9073 2.8726 41.1392 3.43259C41.3712 3.99257 41.4319 4.60877 41.3136 5.20325C41.1954 5.79773 40.9035 6.34379 40.4749 6.77239C40.0463 7.20098 39.5002 7.49286 38.9058 7.61111C38.3113 7.72936 37.6951 7.66867 37.1351 7.43672C36.5751 7.20476 36.0965 6.81196 35.7597 6.30798C35.423 5.80401 35.2432 5.21149 35.2432 4.60537C35.2432 3.79258 35.5661 3.01308 36.1409 2.43835C36.7156 1.86362 37.4951 1.54074 38.3079 1.54074ZM37.5417 9.96847V9.20231H39.074V9.96847H37.5417ZM39.038 17.3489L38.3079 18.079L37.5777 17.3489L38.2313 11.5008H38.3845L39.038 17.3489ZM19.1539 9.96847C19.1539 9.21081 19.3786 8.47017 19.7995 7.8402C20.2205 7.21023 20.8188 6.71923 21.5187 6.42928C22.2187 6.13934 22.989 6.06348 23.7321 6.21129C24.4752 6.3591 25.1578 6.72395 25.6935 7.2597C26.2292 7.79544 26.5941 8.47802 26.7419 9.22112C26.8897 9.96422 26.8139 10.7345 26.5239 11.4345C26.234 12.1344 25.743 12.7327 25.113 13.1537C24.483 13.5746 23.7424 13.7993 22.9847 13.7993C21.9691 13.798 20.9954 13.3941 20.2773 12.6759C19.5591 11.9578 19.1552 10.9841 19.1539 9.96847ZM23.7509 16.0977H22.2186C22.0154 16.0977 21.8205 16.017 21.6768 15.8733C21.5331 15.7296 21.4524 15.5348 21.4524 15.3316H24.517C24.517 15.5348 24.4363 15.7296 24.2926 15.8733C24.149 16.017 23.9541 16.0977 23.7509 16.0977ZM24.4695 25.1001L22.9847 27.0791L21.4999 25.1001L22.8575 17.63H23.1119L24.4695 25.1001ZM7.66158 1.54074C8.2677 1.54074 8.86022 1.72048 9.36419 2.05722C9.86817 2.39397 10.261 2.8726 10.4929 3.43259C10.7249 3.99257 10.7856 4.60877 10.6673 5.20325C10.5491 5.79773 10.2572 6.34379 9.8286 6.77239C9.4 7.20098 8.85393 7.49286 8.25945 7.61111C7.66497 7.72936 7.04878 7.66867 6.48879 7.43672C5.9288 7.20476 5.45017 6.81196 5.11343 6.30798C4.77668 5.80401 4.59694 5.21149 4.59694 4.60537C4.59694 3.79258 4.91982 3.01308 5.49455 2.43835C6.06928 1.86362 6.84878 1.54074 7.66158 1.54074ZM6.89542 9.96847V9.20231H8.42773V9.96847H6.89542ZM8.39172 17.3489L7.66158 18.079L6.93143 17.3489L7.58496 11.5008H7.74585L8.39172 17.3489ZM13.7908 17.5427C13.2865 18.5168 13.0237 19.5978 13.0247 20.6947H12.2585V13.7993C12.2585 13.5961 12.1778 13.4012 12.0341 13.2575C11.8904 13.1138 11.6956 13.0331 11.4924 13.0331C11.2892 13.0331 11.0943 13.1138 10.9506 13.2575C10.8069 13.4012 10.7262 13.5961 10.7262 13.7993V20.6947H4.59694V13.7993C4.59694 13.5961 4.51622 13.4012 4.37254 13.2575C4.22886 13.1138 4.03399 13.0331 3.83079 13.0331C3.62759 13.0331 3.43271 13.1138 3.28903 13.2575C3.14535 13.4012 3.06463 13.5961 3.06463 13.7993V20.6947H1.53232V13.0331C1.53353 12.0175 1.93752 11.0438 2.65567 10.3257C3.37382 9.60752 4.34749 9.20353 5.3631 9.20231V9.96847C5.3637 10.2245 5.42846 10.4763 5.55146 10.7009C5.67445 10.9255 5.85177 11.1157 6.0672 11.2541L5.3677 17.5458C5.3551 17.6599 5.36831 17.7754 5.40638 17.8838C5.44444 17.9921 5.50637 18.0905 5.58759 18.1717L7.1199 19.704C7.26358 19.8477 7.45842 19.9284 7.66158 19.9284C7.86473 19.9284 8.05957 19.8477 8.20325 19.704L9.73556 18.1717C9.81678 18.0905 9.87871 17.9921 9.91677 17.8838C9.95484 17.7754 9.96805 17.6599 9.95545 17.5458L9.25595 11.2541C9.47138 11.1157 9.64869 10.9255 9.77169 10.7009C9.89469 10.4763 9.95945 10.2245 9.96005 9.96847V9.20231C10.9757 9.20353 11.9493 9.60752 12.6675 10.3257C13.3856 11.0438 13.7896 12.0175 13.7908 13.0331V17.5427ZM31.4125 29.8886H29.114V19.9285C29.114 19.7253 29.0333 19.5304 28.8896 19.3868C28.7459 19.2431 28.551 19.1624 28.3478 19.1624C28.1446 19.1624 27.9498 19.2431 27.8061 19.3868C27.6624 19.5304 27.5817 19.7253 27.5817 19.9285V44.4456H23.7509V32.187C23.7509 31.9838 23.6702 31.789 23.5265 31.6453C23.3828 31.5016 23.1879 31.4209 22.9847 31.4209C22.7815 31.4209 22.5867 31.5016 22.443 31.6453C22.2993 31.789 22.2186 31.9838 22.2186 32.187V44.4456H18.3878V19.9285C18.3878 19.7253 18.3071 19.5304 18.1634 19.3868C18.0197 19.2431 17.8248 19.1624 17.6216 19.1624C17.4184 19.1624 17.2235 19.2431 17.0799 19.3868C16.9362 19.5304 16.8555 19.7253 16.8555 19.9285V29.8886H14.557V20.6947C14.5586 19.2728 15.1242 17.9096 16.1296 16.9042C17.135 15.8988 18.4982 15.3332 19.9201 15.3316C19.9203 15.7849 20.0545 16.228 20.3059 16.6052C20.5573 16.9824 20.9146 17.2769 21.3329 17.4515L19.9324 25.1545C19.9135 25.2583 19.9163 25.3649 19.9405 25.4676C19.9648 25.5703 20.01 25.6669 20.0733 25.7513L22.3718 28.8159C22.4432 28.9111 22.5357 28.9883 22.6421 29.0415C22.7485 29.0947 22.8658 29.1224 22.9847 29.1224C23.1037 29.1224 23.221 29.0947 23.3274 29.0415C23.4337 28.9883 23.5263 28.9111 23.5977 28.8159L25.8961 25.7513C25.9593 25.6668 26.0044 25.5702 26.0285 25.4675C26.0527 25.3648 26.0553 25.2583 26.0363 25.1545L24.6358 17.4515C25.0542 17.277 25.4117 16.9826 25.6632 16.6054C25.9147 16.2281 26.0491 15.785 26.0494 15.3316C27.4712 15.3332 28.8344 15.8988 29.8399 16.9042C30.8453 17.9096 31.4108 19.2728 31.4125 20.6947V29.8886ZM44.4371 20.6947H42.9048V13.7993C42.9048 13.5961 42.8241 13.4012 42.6804 13.2575C42.5367 13.1138 42.3419 13.0331 42.1387 13.0331C41.9355 13.0331 41.7406 13.1138 41.5969 13.2575C41.4532 13.4012 41.3725 13.5961 41.3725 13.7993V20.6947H35.2432V13.7993C35.2432 13.5961 35.1625 13.4012 35.0188 13.2575C34.8752 13.1138 34.6803 13.0331 34.4771 13.0331C34.2739 13.0331 34.079 13.1138 33.9353 13.2575C33.7916 13.4012 33.7109 13.5961 33.7109 13.7993V20.6947H32.9448C32.9457 19.5978 32.6829 18.5168 32.1786 17.5427V13.0331C32.1798 12.0175 32.5838 11.0438 33.302 10.3257C34.0201 9.60752 34.9938 9.20353 36.0094 9.20231V9.96847C36.01 10.2243 36.0747 10.4759 36.1976 10.7004C36.3205 10.9248 36.4976 11.1149 36.7127 11.2533L36.014 17.5458C36.0014 17.6599 36.0146 17.7754 36.0527 17.8838C36.0907 17.9921 36.1527 18.0905 36.2339 18.1717L37.7662 19.704C37.9099 19.8477 38.1047 19.9284 38.3079 19.9284C38.511 19.9284 38.7059 19.8477 38.8495 19.704L40.3819 18.1717C40.4631 18.0905 40.525 17.9921 40.5631 17.8838C40.6011 17.7754 40.6144 17.6599 40.6017 17.5458L39.903 11.2533C40.1182 11.1149 40.2953 10.9248 40.4181 10.7004C40.541 10.4759 40.6057 10.2243 40.6063 9.96847V9.20231C41.622 9.20353 42.5956 9.60752 43.3138 10.3257C44.0319 11.0438 44.4359 12.0175 44.4371 13.0331V20.6947Z" fill="black"/>
<path d="M10.9867 31.5221C11.6082 30.871 12.0249 30.0518 12.1851 29.1661C12.3453 28.2804 12.242 27.3671 11.8879 26.5396C11.5338 25.712 10.9446 25.0067 10.1933 24.5109C9.44197 24.0152 8.56168 23.751 7.66158 23.751C6.76147 23.751 5.88118 24.0152 5.12988 24.5109C4.37858 25.0067 3.78935 25.712 3.43526 26.5396C3.08118 27.3671 2.97782 28.2804 3.13803 29.1661C3.29823 30.0518 3.71493 30.871 4.33645 31.5221C3.11623 31.7616 2.01692 32.417 1.22609 33.3767C0.435255 34.3363 0.00191236 35.5406 0 36.7841V45.2118C0 45.415 0.0807199 45.6099 0.224402 45.7536C0.368085 45.8972 0.56296 45.978 0.766158 45.978H14.557C14.7602 45.978 14.9551 45.8972 15.0987 45.7536C15.2424 45.6099 15.3232 45.415 15.3232 45.2118V36.7841C15.3212 35.5406 14.8879 34.3363 14.0971 33.3767C13.3062 32.417 12.2069 31.7616 10.9867 31.5221ZM8.42773 32.9533V33.7194H6.89542V32.9533H8.42773ZM8.39172 41.0998L7.66158 41.83L6.93143 41.0998L7.58496 35.2518H7.74585L8.39172 41.0998ZM7.66158 25.2917C8.2677 25.2917 8.86022 25.4715 9.36419 25.8082C9.86817 26.1449 10.261 26.6236 10.4929 27.1836C10.7249 27.7435 10.7856 28.3597 10.6673 28.9542C10.5491 29.5487 10.2572 30.0948 9.8286 30.5234C9.4 30.952 8.85393 31.2438 8.25945 31.3621C7.66497 31.4803 7.04878 31.4196 6.48879 31.1877C5.9288 30.9557 5.45017 30.5629 5.11343 30.059C4.77668 29.555 4.59694 28.9625 4.59694 28.3563C4.59694 27.5436 4.91982 26.7641 5.49455 26.1893C6.06928 25.6146 6.84878 25.2917 7.66158 25.2917ZM13.7908 44.4457H12.2585V37.5502C12.2585 37.347 12.1778 37.1522 12.0341 37.0085C11.8904 36.8648 11.6956 36.7841 11.4924 36.7841C11.2892 36.7841 11.0943 36.8648 10.9506 37.0085C10.8069 37.1522 10.7262 37.347 10.7262 37.5502V44.4457H4.59694V37.5502C4.59694 37.347 4.51622 37.1522 4.37254 37.0085C4.22886 36.8648 4.03399 36.7841 3.83079 36.7841C3.62759 36.7841 3.43271 36.8648 3.28903 37.0085C3.14535 37.1522 3.06463 37.347 3.06463 37.5502V44.4457H1.53232V36.7841C1.53353 35.7685 1.93752 34.7948 2.65567 34.0766C3.37382 33.3585 4.34749 32.9545 5.3631 32.9533V33.7194C5.3637 33.9755 5.42846 34.2273 5.55146 34.4519C5.67445 34.6765 5.85177 34.8667 6.0672 35.0051L5.3677 41.2967C5.3551 41.4109 5.36831 41.5264 5.40638 41.6348C5.44444 41.7431 5.50637 41.8415 5.58759 41.9227L7.1199 43.455C7.26358 43.5986 7.45842 43.6793 7.66158 43.6793C7.86473 43.6793 8.05957 43.5986 8.20325 43.455L9.73556 41.9227C9.81678 41.8415 9.87871 41.7431 9.91677 41.6348C9.95484 41.5264 9.96805 41.4109 9.95545 41.2967L9.25595 35.0051C9.47138 34.8667 9.64869 34.6765 9.77169 34.4519C9.89469 34.2273 9.95945 33.9755 9.96005 33.7194V32.9533C10.9757 32.9545 11.9493 33.3585 12.6675 34.0766C13.3856 34.7948 13.7896 35.7685 13.7908 36.7841V44.4457Z" fill="black"/>
</svg>
