<svg width="25" height="25" viewBox="0 0 25 25" fill="none" xmlns="http://www.w3.org/2000/svg">
<path d="M12.5 25C19.4036 25 25 19.4036 25 12.5C25 5.59644 19.4036 0 12.5 0C5.59644 0 0 5.59644 0 12.5C0 19.4036 5.59644 25 12.5 25Z" fill="#4D76A1"/>
<path fill-rule="evenodd" clip-rule="evenodd" d="M12.0275 17.9821H13.0086C13.0086 17.9821 13.305 17.9496 13.4563 17.7865C13.5956 17.6368 13.5911 17.3556 13.5911 17.3556C13.5911 17.3556 13.5719 16.0391 14.1829 15.8453C14.7852 15.6543 15.5586 17.1176 16.3784 17.6802C16.9983 18.106 17.4694 18.0127 17.4694 18.0127L19.6613 17.9821C19.6613 17.9821 20.8079 17.9115 20.2642 17.01C20.2197 16.9362 19.9476 16.343 18.6345 15.1242C17.2601 13.8485 17.4442 14.0549 19.0998 11.8482C20.108 10.5044 20.5111 9.68394 20.3852 9.33255C20.2651 8.99787 19.5236 9.08633 19.5236 9.08633L17.0556 9.1017C17.0556 9.1017 16.8726 9.07675 16.7369 9.15785C16.6044 9.2374 16.519 9.42279 16.519 9.42279C16.519 9.42279 16.1284 10.4627 15.6074 11.3471C14.5085 13.2133 14.0691 13.3117 13.8895 13.1959C13.4717 12.9258 13.5759 12.1109 13.5759 11.532C13.5759 9.72361 13.8502 8.96957 13.0418 8.77437C12.7736 8.70953 12.5761 8.66675 11.8901 8.65984C11.0095 8.65071 10.2641 8.66252 9.84208 8.8693C9.56132 9.00678 9.34474 9.31316 9.47665 9.33077C9.63975 9.3526 10.0092 9.43037 10.2051 9.69709C10.458 10.0411 10.4491 10.8139 10.4491 10.8139C10.4491 10.8139 10.5943 12.9427 10.1097 13.2072C9.77702 13.3886 9.32067 13.0183 8.34091 11.3253C7.83889 10.458 7.45986 9.49944 7.45986 9.49944C7.45986 9.49944 7.38678 9.32029 7.25643 9.22448C7.09822 9.10839 6.87718 9.0714 6.87718 9.0714L4.53195 9.08677C4.53195 9.08677 4.17989 9.09658 4.05065 9.24966C3.93568 9.3858 4.04152 9.66745 4.04152 9.66745C4.04152 9.66745 5.87759 13.9631 7.95654 16.1278C9.8628 18.1125 12.0275 17.9821 12.0275 17.9821Z" fill="white"/>
</svg>
