<svg width="46" height="46" viewBox="0 0 46 46" fill="none" xmlns="http://www.w3.org/2000/svg">
<path d="M31.0566 33.2859C34.5684 31.4763 37.3702 28.5391 39.0123 24.9459C40.6543 21.3527 41.0413 17.312 40.1111 13.4725C39.1809 9.63294 36.9875 6.21735 33.883 3.7741C30.7785 1.33086 26.943 0.00168766 22.9924 1.60604e-06C19.0418 -0.00168445 15.2052 1.32421 12.0987 3.76481C8.9921 6.2054 6.79576 9.61911 5.86228 13.4579C4.9288 17.2966 5.31234 21.3377 6.95132 24.9323C8.59029 28.5268 11.3896 31.4664 14.8999 33.279C15.2639 33.4725 15.5674 33.7625 15.7772 34.1174C15.987 34.4722 16.0949 34.878 16.0889 35.2902V36.7719H15.3228C15.1196 36.7719 14.9247 36.8526 14.781 36.9963C14.6373 37.14 14.5566 37.3349 14.5566 37.5381V42.135C14.5566 42.3382 14.6373 42.5331 14.781 42.6768C14.9247 42.8205 15.1196 42.9012 15.3228 42.9012H17.6213V43.6673C17.6213 44.2769 17.8634 44.8616 18.2945 45.2926C18.7255 45.7236 19.3101 45.9658 19.9197 45.9658H26.049C26.6586 45.9658 27.2432 45.7236 27.6743 45.2926C28.1053 44.8616 28.3475 44.2769 28.3475 43.6673V42.9012H30.6459C30.8491 42.9012 31.044 42.8205 31.1877 42.6768C31.3314 42.5331 31.4121 42.3382 31.4121 42.135V37.5381C31.4121 37.3349 31.3314 37.14 31.1877 36.9963C31.044 36.8526 30.8491 36.7719 30.6459 36.7719H29.8798V35.2917C29.8754 34.882 29.9827 34.4789 30.19 34.1256C30.3973 33.7722 30.6969 33.482 31.0566 33.2859ZM26.8152 43.6673C26.8152 43.8705 26.7344 44.0654 26.5907 44.2091C26.4471 44.3528 26.2522 44.4335 26.049 44.4335H19.9197C19.7165 44.4335 19.5217 44.3528 19.378 44.2091C19.2343 44.0654 19.1536 43.8705 19.1536 43.6673V42.9012H26.8152V43.6673ZM29.8798 41.3689H16.0889V38.3042H29.8798V41.3689ZM15.1588 22.4348C14.6381 21.6058 14.2595 20.6956 14.0387 19.7418C13.9993 19.5734 13.9041 19.4234 13.7686 19.316C13.6332 19.2086 13.4653 19.1502 13.2925 19.1503H10.7258V16.0857H13.2925C13.4653 16.0857 13.6332 16.0273 13.7686 15.9199C13.9041 15.8126 13.9993 15.6625 14.0387 15.4942C14.2595 14.5404 14.6381 13.6302 15.1588 12.8011C15.2514 12.6542 15.2913 12.4801 15.2719 12.3075C15.2526 12.1349 15.1751 11.9739 15.0523 11.8511L13.2342 10.033L15.3994 7.86786L17.2175 9.68595C17.3403 9.80877 17.5012 9.8862 17.6739 9.90555C17.8465 9.9249 18.0206 9.88502 18.1675 9.79245C18.9966 9.27168 19.9068 8.89309 20.8606 8.67232C21.0289 8.63291 21.1789 8.53773 21.2863 8.40225C21.3937 8.26677 21.4521 8.09896 21.452 7.92609V5.35946H24.5167V7.92609C24.5166 8.09896 24.575 8.26677 24.6824 8.40225C24.7898 8.53773 24.9398 8.63291 25.1082 8.67232C26.062 8.89309 26.9722 9.27168 27.8012 9.79245C27.9482 9.88502 28.1222 9.9249 28.2949 9.90555C28.4675 9.8862 28.6284 9.80877 28.7512 9.68595L30.5693 7.86786L32.7345 10.033L30.9164 11.8511C30.794 11.9733 30.7166 12.1333 30.6967 12.3051C30.6768 12.4769 30.7156 12.6504 30.8068 12.7973C31.3259 13.6261 31.7026 14.5358 31.9216 15.4888C31.96 15.6583 32.0548 15.8096 32.1906 15.9181C32.3263 16.0265 32.4949 16.0856 32.6686 16.0857H35.2429V19.1503H32.6686C32.4949 19.1503 32.3263 19.2094 32.1906 19.3179C32.0548 19.4263 31.96 19.5777 31.9216 19.7471C31.7026 20.7002 31.3259 21.6099 30.8068 22.4386C30.7156 22.5856 30.6768 22.759 30.6967 22.9308C30.7166 23.1026 30.794 23.2626 30.9164 23.3848L32.7345 25.2029L30.5693 27.3681L28.7512 25.55C28.6283 25.4271 28.4671 25.3497 28.2944 25.3305C28.1216 25.3113 27.9474 25.3514 27.8004 25.4443C27.4841 25.6431 27.155 25.8208 26.8152 25.976V23.3282C28.0452 22.5063 28.9783 21.3107 29.4767 19.9178C29.9751 18.525 30.0123 17.0088 29.5829 15.5932C29.1535 14.1776 28.2802 12.9376 27.092 12.0563C25.9038 11.1751 24.4637 10.6993 22.9844 10.6993C21.505 10.6993 20.0649 11.1751 18.8767 12.0563C17.6885 12.9376 16.8153 14.1776 16.3858 15.5932C15.9564 17.0088 15.9937 18.525 16.4921 19.9178C16.9904 21.3107 17.9236 22.5063 19.1536 23.3282V25.976C18.8137 25.8208 18.4846 25.6431 18.1683 25.4443C18.0213 25.3514 17.8471 25.3113 17.6744 25.3305C17.5016 25.3497 17.3405 25.4271 17.2175 25.55L15.3994 27.3681L13.2342 25.2029L15.0523 23.3848C15.1751 23.262 15.2526 23.1011 15.2719 22.9285C15.2913 22.7559 15.2514 22.5818 15.1588 22.4348ZM22.9844 20.4911L20.9594 18.9725L22.9844 15.9324L25.0093 18.9702L22.9844 20.4911ZM23.7505 21.8318L25.2828 20.6826V36.7719H23.7505V21.8318ZM23.6218 14.1281C23.5477 14.029 23.4515 13.9486 23.3408 13.8932C23.2302 13.8378 23.1081 13.8089 22.9844 13.8089C22.8606 13.8089 22.7386 13.8378 22.6279 13.8932C22.5173 13.9486 22.421 14.029 22.3469 14.1281L19.2823 18.7251C19.1986 18.8511 19.1538 18.999 19.1536 19.1503V21.3637C18.4145 20.6094 17.9146 19.6537 17.7165 18.6163C17.5184 17.579 17.6309 16.5063 18.04 15.5327C18.4491 14.5591 19.1366 13.728 20.0162 13.1435C20.8957 12.559 21.9283 12.2472 22.9844 12.2472C24.0404 12.2472 25.073 12.559 25.9526 13.1435C26.8321 13.728 27.5196 14.5591 27.9287 15.5327C28.3378 16.5063 28.4504 17.579 28.2523 18.6163C28.0542 19.6537 27.5542 20.6094 26.8152 21.3637V19.1503C26.8149 18.999 26.7701 18.8511 26.6864 18.7251L23.6218 14.1281ZM20.6859 20.6826L22.2182 21.8318V36.7719H20.6859V20.6826ZM26.8152 36.7719V27.6263C27.2517 27.4643 27.6767 27.2726 28.087 27.0524L30.0277 28.9931C30.1713 29.1368 30.3662 29.2174 30.5693 29.2174C30.7725 29.2174 30.9673 29.1368 31.111 28.9931L34.3595 25.7446C34.5031 25.6009 34.5838 25.4061 34.5838 25.2029C34.5838 24.9998 34.5031 24.8049 34.3595 24.6613L32.4173 22.7183C32.7705 22.0718 33.0536 21.3893 33.2616 20.6826H36.009C36.2122 20.6826 36.4071 20.6019 36.5508 20.4582C36.6945 20.3145 36.7752 20.1196 36.7752 19.9165V15.3195C36.7752 15.1163 36.6945 14.9214 36.5508 14.7778C36.4071 14.6341 36.2122 14.5533 36.009 14.5533H33.2616C33.0537 13.8468 32.7712 13.1644 32.4188 12.5177L34.361 10.5747C34.5047 10.431 34.5854 10.2362 34.5854 10.033C34.5854 9.82986 34.5047 9.63502 34.361 9.49135L31.1125 6.24284C30.9689 6.09921 30.774 6.01852 30.5709 6.01852C30.3677 6.01852 30.1729 6.09921 30.0292 6.24284L28.087 8.18352C27.44 7.82904 26.7567 7.5452 26.049 7.33691V4.5933C26.049 4.3901 25.9683 4.19523 25.8246 4.05155C25.6809 3.90786 25.486 3.82714 25.2828 3.82714H20.6859C20.4827 3.82714 20.2878 3.90786 20.1441 4.05155C20.0005 4.19523 19.9197 4.3901 19.9197 4.5933V7.33691C19.212 7.5452 18.5288 7.82904 17.8818 8.18352L15.9411 6.24284C15.7974 6.09921 15.6026 6.01852 15.3994 6.01852C15.1962 6.01852 15.0014 6.09921 14.8577 6.24284L11.6092 9.49135C11.4656 9.63502 11.3849 9.82986 11.3849 10.033C11.3849 10.2362 11.4656 10.431 11.6092 10.5747L13.5499 12.5154C13.1954 13.1624 12.9116 13.8456 12.7033 14.5533H9.95968C9.75649 14.5533 9.56161 14.6341 9.41793 14.7778C9.27425 14.9214 9.19353 15.1163 9.19353 15.3195V19.9165C9.19353 20.1196 9.27425 20.3145 9.41793 20.4582C9.56161 20.6019 9.75649 20.6826 9.95968 20.6826H12.7033C12.9116 21.3903 13.1954 22.0736 13.5499 22.7206L11.6092 24.6613C11.4656 24.8049 11.3849 24.9998 11.3849 25.2029C11.3849 25.4061 11.4656 25.6009 11.6092 25.7446L14.8577 28.9931C15.0014 29.1368 15.1962 29.2174 15.3994 29.2174C15.6026 29.2174 15.7974 29.1368 15.9411 28.9931L17.8818 27.0524C18.2921 27.2726 18.717 27.4643 19.1536 27.6263V36.7719H17.6213V35.2902C17.6279 34.597 17.443 33.9155 17.0871 33.3207C16.7311 32.7259 16.2179 32.2409 15.604 31.9191C12.3986 30.2645 9.84223 27.5808 8.3453 24.2989C6.84837 21.017 6.49774 17.3272 7.3497 13.8221C8.20166 10.3169 10.2068 7.19975 13.0431 4.97106C15.8795 2.74238 19.3825 1.53148 22.9897 1.53279C26.5969 1.5341 30.099 2.74755 32.9337 4.97829C35.7684 7.20904 37.7713 10.3277 38.6207 13.8334C39.4701 17.3392 39.1168 21.0287 37.6175 24.3095C36.1182 27.5904 33.5598 30.2722 30.3533 31.9244C29.7412 32.2465 29.23 32.7313 28.8761 33.3255C28.5221 33.9197 28.3392 34.6001 28.3475 35.2917V36.7719H26.8152Z" fill="black"/>
<path d="M45.2033 18.3841H42.9048C42.7016 18.3841 42.5068 18.3034 42.3631 18.1597C42.2194 18.016 42.1387 17.8212 42.1387 17.618C42.1387 17.4148 42.2194 17.2199 42.3631 17.0762C42.5068 16.9325 42.7016 16.8518 42.9048 16.8518H45.2033C45.4065 16.8518 45.6014 16.9325 45.7451 17.0762C45.8887 17.2199 45.9695 17.4148 45.9695 17.618C45.9695 17.8212 45.8887 18.016 45.7451 18.1597C45.6014 18.3034 45.4065 18.3841 45.2033 18.3841Z" fill="black"/>
<path d="M42.2255 13.2288C42.0396 13.2289 41.86 13.1613 41.7201 13.0388C41.5803 12.9162 41.4898 12.747 41.4655 12.5627C41.4413 12.3784 41.4848 12.1915 41.5881 12.0369C41.6915 11.8823 41.8475 11.7706 42.0271 11.7225L44.2489 11.1272C44.4452 11.0746 44.6544 11.1021 44.8304 11.2037C45.0064 11.3053 45.1348 11.4726 45.1875 11.6689C45.2401 11.8652 45.2126 12.0743 45.111 12.2503C45.0094 12.4264 44.8421 12.5548 44.6458 12.6074L42.4239 13.202C42.3593 13.2198 42.2925 13.2289 42.2255 13.2288Z" fill="black"/>
<path d="M40.2368 8.42413C40.0682 8.42412 39.9042 8.36847 39.7704 8.2658C39.6366 8.16312 39.5405 8.01917 39.4968 7.85627C39.4532 7.69337 39.4645 7.52061 39.529 7.3648C39.5936 7.20898 39.7077 7.07881 39.8537 6.99448L41.8458 5.84524C42.0216 5.74525 42.2299 5.71888 42.4252 5.77188C42.6204 5.82489 42.7868 5.95298 42.8879 6.12819C42.9891 6.3034 43.0169 6.51151 42.9651 6.70711C42.9134 6.9027 42.7864 7.06991 42.6119 7.17223L40.6199 8.32146C40.5034 8.38872 40.3713 8.42412 40.2368 8.42413Z" fill="black"/>
<path d="M37.0707 4.29832C36.9192 4.29829 36.7711 4.25334 36.6451 4.16915C36.5191 4.08496 36.421 3.96531 36.363 3.82534C36.305 3.68536 36.2899 3.53134 36.3194 3.38274C36.3489 3.23414 36.4219 3.09764 36.529 2.99049L38.1548 1.36547C38.2247 1.28947 38.3093 1.22841 38.4035 1.18594C38.4976 1.14346 38.5994 1.12047 38.7027 1.11833C38.8059 1.11619 38.9085 1.13495 39.0044 1.17349C39.1002 1.21202 39.1872 1.26953 39.2603 1.34257C39.3333 1.4156 39.3908 1.50265 39.4294 1.59847C39.4679 1.6943 39.4867 1.79693 39.4845 1.90019C39.4824 2.00345 39.4594 2.10522 39.4169 2.19937C39.3744 2.29352 39.3134 2.3781 39.2374 2.44805L37.6124 4.07384C37.4687 4.21753 37.2739 4.29828 37.0707 4.29832Z" fill="black"/>
<path d="M44.4465 24.135C44.3795 24.135 44.3128 24.1262 44.248 24.109L42.0262 23.5137C41.9266 23.4898 41.8329 23.4463 41.7505 23.3856C41.668 23.3249 41.5986 23.2484 41.5462 23.1604C41.4939 23.0725 41.4597 22.9749 41.4457 22.8735C41.4317 22.7721 41.4381 22.669 41.4646 22.5701C41.4912 22.4712 41.5372 22.3787 41.6001 22.2979C41.663 22.2172 41.7414 22.1498 41.8307 22.0999C41.9201 22.0499 42.0185 22.0184 42.1202 22.0071C42.222 21.9958 42.3249 22.0051 42.423 22.0342L44.6449 22.6288C44.8245 22.6768 44.9805 22.7886 45.0838 22.9432C45.1871 23.0977 45.2307 23.2846 45.2064 23.4689C45.1821 23.6533 45.0916 23.8225 44.9518 23.945C44.812 24.0676 44.6324 24.1351 44.4465 24.135Z" fill="black"/>
<path d="M42.2264 29.4934C42.0919 29.4937 41.9597 29.4583 41.8434 29.3908L39.8513 28.2415C39.7635 28.1916 39.6864 28.1248 39.6245 28.0449C39.5626 27.965 39.5171 27.8737 39.4906 27.7762C39.4642 27.6787 39.4572 27.5769 39.4703 27.4767C39.4833 27.3765 39.516 27.2799 39.5665 27.1924C39.617 27.1049 39.6844 27.0282 39.7646 26.9669C39.8449 26.9055 39.9365 26.8606 40.0342 26.8348C40.1319 26.8089 40.2337 26.8027 40.3338 26.8164C40.4339 26.8301 40.5303 26.8634 40.6175 26.9145L42.6095 28.0638C42.7556 28.1481 42.8697 28.2783 42.9342 28.4341C42.9988 28.5899 43.0101 28.7627 42.9665 28.9256C42.9228 29.0885 42.8266 29.2324 42.6928 29.3351C42.559 29.4378 42.3951 29.4934 42.2264 29.4934Z" fill="black"/>
<path d="M38.6952 34.0949C38.4921 34.0949 38.2972 34.0141 38.1536 33.8705L36.5285 32.2454C36.389 32.1009 36.3118 31.9074 36.3135 31.7065C36.3153 31.5056 36.3958 31.3135 36.5379 31.1714C36.6799 31.0294 36.8721 30.9488 37.073 30.9471C37.2739 30.9453 37.4674 31.0225 37.6119 31.1621L39.2369 32.7879C39.344 32.895 39.417 33.0315 39.4465 33.1801C39.4761 33.3287 39.4609 33.4827 39.4029 33.6227C39.3449 33.7627 39.2468 33.8823 39.1208 33.9665C38.9948 34.0507 38.8467 34.0957 38.6952 34.0957V34.0949Z" fill="black"/>
<path d="M3.06463 18.3841H0.766158C0.56296 18.3841 0.368085 18.3034 0.224402 18.1597C0.0807199 18.016 0 17.8212 0 17.618C0 17.4148 0.0807199 17.2199 0.224402 17.0762C0.368085 16.9325 0.56296 16.8518 0.766158 16.8518H3.06463C3.26783 16.8518 3.4627 16.9325 3.60638 17.0762C3.75007 17.2199 3.83079 17.4148 3.83079 17.618C3.83079 17.8212 3.75007 18.016 3.60638 18.1597C3.4627 18.3034 3.26783 18.3841 3.06463 18.3841Z" fill="black"/>
<path d="M3.74299 13.2288C3.67594 13.2288 3.60919 13.2198 3.54455 13.202L1.3227 12.6074C1.2255 12.5814 1.1344 12.5364 1.05457 12.4752C0.974752 12.4139 0.90778 12.3375 0.857481 12.2503C0.807182 12.1632 0.774541 12.067 0.761423 11.9672C0.748304 11.8675 0.754964 11.7661 0.781023 11.6689C0.807082 11.5717 0.852029 11.4806 0.913298 11.4008C0.974567 11.3209 1.05096 11.254 1.13811 11.2037C1.31412 11.1021 1.52328 11.0746 1.71957 11.1272L3.94142 11.7225C4.12103 11.7706 4.27702 11.8823 4.38033 12.0369C4.48364 12.1915 4.52722 12.3784 4.50293 12.5627C4.47865 12.747 4.38816 12.9162 4.24835 13.0388C4.10853 13.1613 3.92891 13.2289 3.74299 13.2288Z" fill="black"/>
<path d="M5.73228 8.42413C5.59779 8.42412 5.46567 8.38872 5.3492 8.32146L3.3572 7.17223C3.18266 7.06991 3.05568 6.9027 3.00397 6.70711C2.95225 6.51151 2.98001 6.3034 3.08117 6.12819C3.18233 5.95298 3.34869 5.82489 3.54394 5.77188C3.73918 5.71888 3.94747 5.74525 4.12335 5.84524L6.11536 6.99448C6.26141 7.07881 6.37556 7.20898 6.44009 7.3648C6.50463 7.52061 6.51595 7.69337 6.4723 7.85627C6.42865 8.01917 6.33247 8.16312 6.19867 8.2658C6.06487 8.36847 5.90093 8.42412 5.73228 8.42413Z" fill="black"/>
<path d="M8.89935 4.29832C8.69617 4.29828 8.50133 4.21753 8.35768 4.07384L6.73266 2.44805C6.65666 2.3781 6.59559 2.29352 6.55312 2.19937C6.51065 2.10522 6.48766 2.00345 6.48552 1.90019C6.48338 1.79693 6.50214 1.6943 6.54067 1.59847C6.57921 1.50265 6.63672 1.4156 6.70975 1.34257C6.78279 1.26953 6.86983 1.21202 6.96566 1.17349C7.06149 1.13495 7.16412 1.11619 7.26738 1.11833C7.37064 1.12047 7.47241 1.14346 7.56655 1.18594C7.6607 1.22841 7.74529 1.28947 7.81524 1.36547L9.44026 2.99049C9.54737 3.09764 9.62032 3.23414 9.64987 3.38274C9.67942 3.53134 9.66424 3.68536 9.60627 3.82534C9.54829 3.96531 9.45012 4.08496 9.32415 4.16915C9.19819 4.25334 9.05009 4.29829 8.89859 4.29832H8.89935Z" fill="black"/>
<path d="M1.52335 24.135C1.33742 24.1351 1.15781 24.0676 1.01799 23.945C0.87817 23.8225 0.787685 23.6532 0.763401 23.4689C0.739117 23.2846 0.782691 23.0977 0.886002 22.9431C0.989312 22.7885 1.14531 22.6768 1.32491 22.6287L3.54677 22.0342C3.64416 22.0082 3.74572 22.0017 3.84563 22.015C3.94554 22.0283 4.04186 22.0611 4.12908 22.1116C4.21631 22.1622 4.29273 22.2293 4.35398 22.3094C4.41523 22.3894 4.46012 22.4808 4.48608 22.5782C4.51204 22.6756 4.51856 22.7771 4.50527 22.877C4.49198 22.9769 4.45914 23.0733 4.40863 23.1605C4.35812 23.2477 4.29092 23.3241 4.21087 23.3854C4.13083 23.4466 4.0395 23.4915 3.94211 23.5175L1.72025 24.1128C1.65584 24.1286 1.58966 24.1361 1.52335 24.135Z" fill="black"/>
<path d="M3.74366 29.4934C3.57501 29.4934 3.41108 29.4378 3.27728 29.3351C3.14348 29.2324 3.0473 29.0885 3.00365 28.9256C2.96 28.7627 2.97132 28.5899 3.03585 28.4341C3.10039 28.2783 3.21453 28.1481 3.36058 28.0638L5.35259 26.9145C5.43976 26.8634 5.53617 26.8301 5.63628 26.8164C5.73639 26.8027 5.83822 26.8089 5.9359 26.8348C6.03359 26.8606 6.1252 26.9055 6.20546 26.9669C6.28573 27.0282 6.35306 27.1049 6.40358 27.1924C6.4541 27.2799 6.48682 27.3765 6.49984 27.4767C6.51286 27.5769 6.50594 27.6787 6.47947 27.7762C6.45299 27.8737 6.40749 27.965 6.34559 28.0449C6.28368 28.1248 6.20659 28.1916 6.11875 28.2415L4.12674 29.3908C4.01039 29.4583 3.87819 29.4937 3.74366 29.4934Z" fill="black"/>
<path d="M7.27381 34.0949C7.1223 34.0949 6.9742 34.05 6.84824 33.9658C6.72227 33.8816 6.6241 33.7619 6.56612 33.622C6.50815 33.482 6.49298 33.328 6.52253 33.1794C6.55207 33.0308 6.62502 32.8943 6.73213 32.7871L8.35715 31.1621C8.50165 31.0225 8.69519 30.9453 8.89607 30.9471C9.09695 30.9488 9.28911 31.0294 9.43117 31.1714C9.57322 31.3135 9.65379 31.5056 9.65554 31.7065C9.65729 31.9074 9.58006 32.1009 9.4405 32.2454L7.81471 33.8705C7.67125 34.014 7.47672 34.0947 7.27381 34.0949Z" fill="black"/>
</svg>
