<svg width="379" height="235" viewBox="0 0 379 235" fill="none" xmlns="http://www.w3.org/2000/svg">
<g opacity="0.15">
<path d="M53.6377 114.895H62.4621L74.0408 88.7588H65.2165L53.6377 114.895Z" fill="#002E51"/>
<path d="M57.5645 169.394H225.295L339.178 -87.7495H171.448L57.5645 169.394Z" fill="#F7DA06"/>
<path d="M30.2246 212.025H38.7089L47.2782 192.64H38.8109L30.2246 212.025Z" fill="#F7DA06"/>
<path d="M11.1816 -149.629H98.5578L213.41 109.674H126.034L11.1816 -149.629Z" fill="#D13E35"/>
<path d="M236.993 26.7598H287.44L353.733 176.434H303.286L236.993 26.7598Z" fill="#C72B22"/>
<path d="M306.159 26.998H319.234L332.479 56.9262H319.404L306.159 26.998Z" fill="#EBEBEB"/>
<path d="M-2.28416 214.678L0.929321 207.417H-80.683L-83.8965 214.678H-2.28416Z" fill="#EDEDED"/>
<path d="M4.41512 199.544L7.6286 192.3H-73.9838L-77.1973 199.544H4.41512Z" fill="#EDEDED"/>
<path d="M11.1134 184.426L14.3269 177.166H-67.2855L-70.499 184.426H11.1134Z" fill="#EDEDED"/>
<path d="M17.8125 169.293L21.026 162.032H-60.5863L-63.7998 169.293H17.8125Z" fill="#EDEDED"/>
<path d="M24.5118 154.159L27.7252 146.915H-53.8871L-57.1006 154.159H24.5118Z" fill="#EDEDED"/>
<path d="M31.211 139.041L34.4245 131.78H-47.1879L-50.4014 139.041H31.211Z" fill="#EDEDED"/>
<path d="M37.9099 123.89L41.1233 116.646H-40.4721L-43.6855 123.89H37.9099Z" fill="#EDEDED"/>
<path d="M44.609 108.773L47.8225 101.512H-33.7728L-36.9863 108.773H44.609Z" fill="#EDEDED"/>
<path d="M108.471 170.636L109.627 173.271H80.0423L78.8691 170.636H108.471Z" fill="#C72B22"/>
<path d="M110.902 176.128L112.058 178.747H82.457L81.3008 176.128H110.902Z" fill="#C72B22"/>
<path d="M113.333 181.621L114.489 184.239H84.8876L83.7314 181.621H113.333Z" fill="#C72B22"/>
<path d="M115.748 187.096L116.921 189.732H87.3192L86.1631 187.096H115.748Z" fill="#C72B22"/>
<path d="M118.179 192.589L119.352 195.208H89.7509L88.5947 192.589H118.179Z" fill="#C72B22"/>
<path d="M120.611 198.081L121.784 200.7H92.1825L91.0264 198.081H120.611Z" fill="#C72B22"/>
<path d="M123.042 203.557L124.215 206.192H94.6132L93.457 203.557H123.042Z" fill="#C72B22"/>
<path d="M125.473 209.049L126.646 211.668H97.0448L95.8887 209.049H125.473Z" fill="#C72B22"/>
<path d="M127.905 214.542L129.078 217.16H99.4765L98.3203 214.542H127.905Z" fill="#C72B22"/>
<path d="M130.336 220.017L131.509 222.653H101.908L100.734 220.017H130.336Z" fill="#C72B22"/>
<path d="M132.767 225.51L133.924 228.128H104.339L103.166 225.51H132.767Z" fill="#C72B22"/>
<path d="M135.199 231.002L136.355 233.621H106.771L105.598 231.002H135.199Z" fill="#C72B22"/>
<path d="M192.616 130.08L195.932 137.562H111.718L108.402 130.08H192.616Z" fill="#C72B22"/>
<path d="M199.536 145.69L202.852 153.172H118.621L115.306 145.69H199.536Z" fill="#C72B22"/>
<path d="M206.456 161.317L209.772 168.799H125.541L122.226 161.317H206.456Z" fill="#C72B22"/>
<path d="M213.359 176.927L216.675 184.409H132.461L129.146 176.927H213.359Z" fill="#C72B22"/>
<path d="M220.28 192.538L223.595 200.02H139.364L136.049 192.538H220.28Z" fill="#C72B22"/>
<path d="M227.199 208.165L230.515 215.647H146.284L142.969 208.165H227.199Z" fill="#C72B22"/>
<path d="M234.119 223.775L237.418 231.257H153.204L149.889 223.775H234.119Z" fill="#C72B22"/>
<path d="M46.4111 0.725586L47.8563 3.97347H11.4028L9.97461 0.725586H46.4111Z" fill="#F7DA06"/>
<path d="M49.4033 7.47656L50.8485 10.7244H14.395L12.9668 7.47656H49.4033Z" fill="#F7DA06"/>
<path d="M52.3965 14.2441L53.8247 17.475H17.3882L15.96 14.2441H52.3965Z" fill="#F7DA06"/>
<path d="M55.3887 20.9951L56.8339 24.243H20.3804L18.9521 20.9951H55.3887Z" fill="#F7DA06"/>
<path d="M58.3809 27.7461L59.8261 30.994H23.3725L21.9443 27.7461H58.3809Z" fill="#F7DA06"/>
<path d="M61.3741 34.5137L62.8022 37.7446H26.3657L24.9375 34.5137H61.3741Z" fill="#F7DA06"/>
<path d="M64.3662 41.2646L65.8114 44.5125H29.3579L27.9297 41.2646H64.3662Z" fill="#F7DA06"/>
<path d="M67.3584 48.0156L68.8036 51.2635H32.3501L30.9219 48.0156H67.3584Z" fill="#F7DA06"/>
<path d="M70.3506 54.7832L71.7788 58.0141H35.3423L33.9141 54.7832H70.3506Z" fill="#F7DA06"/>
<path d="M73.3437 61.5342L74.789 64.7821H38.3354L36.9072 61.5342H73.3437Z" fill="#F7DA06"/>
<path d="M76.3359 68.2852L77.7812 71.533H41.3276L39.8994 68.2852H76.3359Z" fill="#F7DA06"/>
</g>
</svg>
