<svg width="46" height="46" viewBox="0 0 46 46" fill="none" xmlns="http://www.w3.org/2000/svg">
<path d="M43.5084 18.2535C42.7222 18.1037 41.9085 18.2611 41.2349 18.6933C40.5613 19.1254 40.0791 19.7994 39.8875 20.5765L38.1491 27.0536C37.5688 26.6863 36.8844 26.5186 36.2 26.5759C35.5156 26.6331 34.8687 26.9122 34.3574 27.3708L27.6757 31.5754C26.4664 32.331 25.4699 33.3826 24.7804 34.6308C24.0909 35.879 23.7312 37.2824 23.7354 38.7084V45.2038C23.7354 45.407 23.8161 45.6019 23.9598 45.7456C24.1035 45.8893 24.2983 45.97 24.5015 45.97C24.7047 45.97 24.8996 45.8893 25.0433 45.7456C25.187 45.6019 25.2677 45.407 25.2677 45.2038V38.7084C25.2643 37.5418 25.5585 36.3936 26.1225 35.3725C26.6866 34.3513 27.5017 33.4909 28.4909 32.8725C28.4909 32.8725 35.335 28.5583 35.3749 28.5185C35.667 28.24 36.055 28.0847 36.4586 28.0847C36.8621 28.0847 37.2502 28.24 37.5423 28.5185C37.8222 28.7986 37.9828 29.1762 37.9903 29.5722C37.9979 29.9681 37.8519 30.3516 37.5829 30.6422L32.4887 34.2225C32.3224 34.3393 32.2093 34.5175 32.1743 34.7177C32.1394 34.9179 32.1853 35.1238 32.3022 35.2901C32.419 35.4565 32.5971 35.5696 32.7974 35.6045C32.9976 35.6395 33.2035 35.5935 33.3698 35.4767C33.3698 35.4767 38.5942 31.7991 38.6257 31.7685C39.04 31.3587 39.3271 30.8379 39.4523 30.2688C39.5774 29.6996 39.5354 29.1064 39.3313 28.5606L41.3677 20.9756C41.4613 20.5796 41.7012 20.2335 42.0392 20.0068C42.3772 19.7802 42.7885 19.6897 43.1904 19.7536C43.533 19.8269 43.8402 20.015 44.0613 20.2866C44.2824 20.5583 44.4041 20.8974 44.4063 21.2476C44.4074 21.3823 44.3904 21.5166 44.3558 21.6468L41.7018 31.557C41.5278 32.2067 41.1859 32.7991 40.7104 33.2748L35.2707 38.7145C34.7698 39.2115 34.3727 39.803 34.1023 40.4547C33.8319 41.1063 33.6936 41.8052 33.6954 42.5108V45.2038C33.6954 45.407 33.7762 45.6019 33.9198 45.7456C34.0635 45.8893 34.2584 45.97 34.4616 45.97C34.6648 45.97 34.8597 45.8893 35.0033 45.7456C35.147 45.6019 35.2278 45.407 35.2278 45.2038V42.5108C35.2265 42.0076 35.325 41.5091 35.5177 41.0442C35.7103 40.5793 35.9933 40.1572 36.3502 39.8024L41.7945 34.3581C42.4593 33.6916 42.9378 32.8623 43.182 31.9531L45.8352 22.0437C45.9427 21.6417 45.9672 21.222 45.9073 20.8102C45.8473 20.3984 45.7041 20.0031 45.4864 19.6485C45.2687 19.2939 44.981 18.9873 44.6409 18.7474C44.3009 18.5076 43.9155 18.3395 43.5084 18.2535Z" fill="black"/>
<path d="M18.2637 31.5755L11.5813 27.3709C11.0776 26.8979 10.429 26.6086 9.74046 26.5499C9.05195 26.4913 8.36378 26.6666 7.78728 27.0475L6.0504 20.5766C5.85949 19.7993 5.3775 19.125 4.70389 18.6927C4.03027 18.2605 3.21644 18.1033 2.4303 18.2536C2.02353 18.3401 1.63859 18.5083 1.29885 18.7482C0.959114 18.988 0.671672 19.2944 0.453983 19.6487C0.236295 20.0031 0.0929043 20.398 0.03252 20.8094C-0.0278644 21.2209 -0.00398201 21.6403 0.102717 22.0422L2.75669 31.9533C3.00068 32.8627 3.47944 33.6921 4.14496 34.3582L9.58928 39.8025C9.94601 40.1574 10.2288 40.5795 10.4214 41.0444C10.6139 41.5093 10.7123 42.0077 10.7109 42.5109V45.2039C10.7109 45.4071 10.7917 45.602 10.9353 45.7457C11.079 45.8894 11.2739 45.9701 11.4771 45.9701C11.6803 45.9701 11.8752 45.8894 12.0188 45.7457C12.1625 45.602 12.2432 45.4071 12.2432 45.2039V42.5109C12.2451 41.8064 12.1073 41.1086 11.8377 40.4577C11.5681 39.8069 11.1721 39.216 10.6726 38.7192L5.22831 33.2749C4.75298 32.7991 4.41109 32.2067 4.2369 31.5571L1.58217 21.6438C1.52977 21.4429 1.51861 21.2334 1.54937 21.0281C1.58012 20.8227 1.65216 20.6257 1.76113 20.4489C1.87009 20.2721 2.01374 20.1193 2.18339 19.9995C2.35305 19.8798 2.5452 19.7957 2.74826 19.7522C3.15011 19.6891 3.56099 19.7798 3.89886 20.0063C4.23674 20.2329 4.47674 20.5785 4.57095 20.9742L6.60739 28.5592C6.40805 29.1054 6.36855 29.6972 6.49353 30.2651C6.6185 30.833 6.90278 31.3535 7.31302 31.7655C7.34367 31.797 12.5689 35.4737 12.5689 35.4737C12.6512 35.5316 12.7442 35.5727 12.8424 35.5946C12.9406 35.6165 13.0422 35.6189 13.1413 35.6016C13.2405 35.5843 13.3352 35.5476 13.4202 35.4936C13.5051 35.4397 13.5787 35.3695 13.6365 35.2872C13.6944 35.2048 13.7354 35.1119 13.7574 35.0137C13.7793 34.9154 13.7817 34.8139 13.7643 34.7147C13.747 34.6156 13.7103 34.5208 13.6564 34.4359C13.6024 34.3509 13.5323 34.2774 13.4499 34.2195L8.355 30.6393C8.08116 30.3449 7.93397 29.9548 7.94516 29.5529C7.95635 29.151 8.12504 28.7696 8.41484 28.491C8.70465 28.2124 9.09235 28.0588 9.49435 28.0633C9.89636 28.0679 10.2805 28.2303 10.5638 28.5155C10.6037 28.5553 17.4478 32.8696 17.4478 32.8696C18.4374 33.4882 19.2528 34.3491 19.8169 35.3709C20.3809 36.3926 20.6749 37.5414 20.671 38.7085V45.2039C20.671 45.4071 20.7517 45.602 20.8954 45.7457C21.0391 45.8894 21.2339 45.9701 21.4371 45.9701C21.6403 45.9701 21.8352 45.8894 21.9789 45.7457C22.1226 45.602 22.2033 45.4071 22.2033 45.2039V38.7085C22.2074 37.2826 21.8478 35.8793 21.1584 34.6311C20.4691 33.383 19.4728 32.3313 18.2637 31.5755Z" fill="black"/>
<path d="M23.736 26.8162H26.0344C27.8626 26.8142 29.6153 26.087 30.908 24.7943C32.2007 23.5016 32.9278 21.7489 32.9299 19.9208V16.8561C32.9299 16.6529 32.8491 16.4581 32.7055 16.3144C32.5618 16.1707 32.3669 16.09 32.1637 16.09H29.0991C28.0698 16.0902 27.0536 16.3214 26.1254 16.7664C25.1973 17.2113 24.3807 17.8589 23.736 18.6612V15.2847C25.6917 15.0882 27.4971 14.1475 28.7787 12.6572C30.0603 11.167 30.7202 9.24113 30.6218 7.27802C30.5234 5.31491 29.6743 3.4647 28.25 2.11007C26.8258 0.755437 24.9354 0 22.9698 0C21.0042 0 19.1138 0.755437 17.6896 2.11007C16.2654 3.4647 15.4162 5.31491 15.3178 7.27802C15.2194 9.24113 15.8793 11.167 17.1609 12.6572C18.4426 14.1475 20.2479 15.0882 22.2037 15.2847V20.9597C21.5589 20.1573 20.7424 19.5098 19.8142 19.0648C18.886 18.6198 17.8699 18.3887 16.8406 18.3885H13.7759C13.5727 18.3885 13.3778 18.4692 13.2342 18.6129C13.0905 18.7565 13.0098 18.9514 13.0098 19.1546V22.2192C13.012 24.0473 13.7392 25.7999 15.0318 27.0926C16.3245 28.3852 18.0771 29.1124 19.9052 29.1147H22.2037V32.9454C22.2037 33.1486 22.2844 33.3435 22.4281 33.4872C22.5717 33.6309 22.7666 33.7116 22.9698 33.7116C23.173 33.7116 23.3679 33.6309 23.5116 33.4872C23.6553 33.3435 23.736 33.1486 23.736 32.9454V26.8162ZM29.0991 17.6223H31.3975V19.9208C31.3959 21.3427 30.8304 22.7058 29.8249 23.7113C28.8195 24.7167 27.4563 25.2822 26.0344 25.2839H23.736V22.9854C23.7376 21.5635 24.3032 20.2003 25.3086 19.1949C26.314 18.1895 27.6772 17.6239 29.0991 17.6223ZM16.8406 7.66225C16.8406 6.44999 17.2 5.26496 17.8735 4.25701C18.547 3.24906 19.5043 2.46346 20.6242 1.99955C21.7442 1.53564 22.9766 1.41426 24.1656 1.65076C25.3545 1.88726 26.4467 2.47101 27.3039 3.3282C28.161 4.1854 28.7448 5.27753 28.9813 6.46649C29.2178 7.65545 29.0964 8.88784 28.6325 10.0078C28.1686 11.1278 27.383 12.085 26.375 12.7585C25.3671 13.432 24.1821 13.7915 22.9698 13.7915C21.3448 13.7897 19.7869 13.1433 18.6378 11.9943C17.4887 10.8452 16.8424 9.28727 16.8406 7.66225ZM19.9052 27.5823C18.4833 27.5807 17.1201 27.0152 16.1147 26.0097C15.1093 25.0043 14.5437 23.6411 14.5421 22.2192V19.9208H16.8406C18.2624 19.9224 19.6256 20.488 20.631 21.4934C21.6365 22.4988 22.202 23.862 22.2037 25.2839V27.5823H19.9052Z" fill="black"/>
</svg>
