<svg width="14" height="14" viewBox="0 0 14 14" fill="none" xmlns="http://www.w3.org/2000/svg">
<path d="M8.3485 7.00296L3.11113 1.76536C2.96692 1.62149 2.88759 1.42914 2.88759 1.22403C2.88759 1.01881 2.96692 0.826568 3.11113 0.68247L3.57006 0.223772C3.71404 0.0794465 3.90651 -6.2995e-07 4.11162 -6.12019e-07C4.31672 -5.94088e-07 4.50897 0.0794465 4.65307 0.223772L10.889 6.45957C11.0337 6.60413 11.1129 6.79728 11.1123 7.00261C11.1129 7.20886 11.0338 7.40178 10.889 7.54645L4.65887 13.7762C4.51477 13.9205 4.32253 14 4.11731 14C3.9122 14 3.71996 13.9205 3.57575 13.7762L3.11694 13.3175C2.81838 13.019 2.81838 12.533 3.11694 12.2345L8.3485 7.00296Z" fill="black"/>
</svg>
