<svg width="17" height="17" viewBox="0 0 17 17" fill="none" xmlns="http://www.w3.org/2000/svg">
<path d="M8.5 0C3.80558 0 0 3.80558 0 8.50003C0 10.2766 0.545395 11.9257 1.47744 13.2896L0.360951 16.639L3.71038 15.5226C5.0743 16.4546 6.72333 17 8.5 17C13.1944 17 17 13.1944 17 8.50003C17 3.80558 13.1944 0 8.5 0Z" fill="#FADD05"/>
<path d="M8.47852 3C5.45053 3 3 5.45027 3 8.47852C3 11.4841 5.42827 14 8.47852 14C11.496 14 14 11.5141 14 8.47852C14 5.42494 11.4808 3 8.47852 3ZM8.47852 13.3598C5.81306 13.3598 3.64023 11.1677 3.64023 8.47852C3.64023 5.81306 5.81306 3.64023 8.47852 3.64023C11.1677 3.64023 13.3598 5.81306 13.3598 8.47852C13.3598 11.1677 11.1677 13.3598 8.47852 13.3598Z" fill="#1B4145"/>
<path d="M8.97724 8.47853L10.0384 7.41735C10.1643 7.29149 10.1643 7.08743 10.0384 6.96158C9.91257 6.83572 9.70852 6.83572 9.58266 6.96158L8.29361 8.25064C8.16776 8.3765 8.16776 8.58053 8.29361 8.70639L9.58266 9.99545C9.7085 10.1213 9.91255 10.1213 10.0384 9.99545C10.1643 9.8696 10.1643 9.66556 10.0384 9.5397L8.97724 8.47853Z" fill="#1B4145"/>
<path d="M8.47852 4.28906C6.17092 4.28906 4.28906 6.16673 4.28906 8.47852C4.28906 10.7978 6.17674 12.7109 8.47852 12.7109C10.788 12.7109 12.7109 10.7957 12.7109 8.47852C12.7109 6.17808 10.7992 4.28906 8.47852 4.28906ZM11.2196 10.7639L11.0281 10.5724C10.9023 10.4465 10.6982 10.4465 10.5724 10.5724C10.4465 10.6982 10.4465 10.9023 10.5724 11.0281L10.7639 11.2196C10.2171 11.6791 9.53701 11.9819 8.80076 12.051V11.7441C8.80076 11.5662 8.65647 11.4219 8.47849 11.4219C8.30052 11.4219 8.15623 11.5662 8.15623 11.7441V12.0514C7.42284 11.9842 6.75321 11.6902 6.21668 11.2391L6.42762 11.0281C6.55347 10.9023 6.55347 10.6982 6.42762 10.5724C6.30178 10.4465 6.09772 10.4465 5.97187 10.5724L5.76261 10.7816C5.30966 10.2353 5.01435 9.55095 4.94805 8.80078H5.25586C5.43384 8.80078 5.57812 8.65649 5.57812 8.47852C5.57812 8.30054 5.43384 8.15625 5.25586 8.15625H4.9484C5.01504 7.42041 5.30734 6.74877 5.75559 6.21133L5.97189 6.42764C6.09772 6.55347 6.30178 6.55349 6.42764 6.42764C6.55349 6.30178 6.55349 6.09775 6.42764 5.97189L6.21133 5.75559C6.74877 5.30734 7.42041 5.01504 8.15625 4.9484V5.25586C8.15625 5.43384 8.30054 5.57812 8.47852 5.57812C8.65649 5.57812 8.80078 5.43384 8.80078 5.25586V4.94805C9.55095 5.01435 10.2353 5.30966 10.7816 5.76263L10.5724 5.97187C10.3687 6.17552 10.5157 6.52202 10.8002 6.52202C10.8827 6.52202 10.9652 6.49057 11.0281 6.42764L11.239 6.21671C11.6902 6.75323 11.9842 7.42288 12.0514 8.15625H11.7441C11.5662 8.15625 11.4219 8.30054 11.4219 8.47852C11.4219 8.65649 11.5662 8.80078 11.7441 8.80078H12.051C11.9819 9.53703 11.6791 10.2171 11.2196 10.7639Z" fill="#1B4145"/>
</svg>
