<svg width="17" height="17" viewBox="0 0 17 17" fill="none" xmlns="http://www.w3.org/2000/svg">
<path d="M8.5 0C3.80558 0 0 3.80558 0 8.50003C0 10.2766 0.545395 11.9257 1.47744 13.2896L0.360951 16.639L3.71038 15.5226C5.0743 16.4546 6.72333 17 8.5 17C13.1944 17 17 13.1944 17 8.50003C17 3.80558 13.1944 0 8.5 0Z" fill="#FADD05"/>
<g clip-path="url(#clip0)">
<path d="M12.1968 12.0359C12.3991 12.0359 12.5744 11.9691 12.7234 11.8372L10.1736 9.28731C10.1124 9.33111 10.0531 9.37371 9.9971 9.41422C9.80628 9.55481 9.65141 9.66452 9.53249 9.74313C9.41358 9.82192 9.25538 9.90223 9.05789 9.98422C8.86028 10.0663 8.67618 10.1072 8.50539 10.1072H8.50039H8.49539C8.32459 10.1072 8.14048 10.0663 7.94288 9.98422C7.74528 9.90223 7.58708 9.82192 7.46829 9.74313C7.34938 9.66452 7.19459 9.55483 7.00368 9.41422C6.95047 9.37522 6.89147 9.33242 6.82768 9.28662L4.27734 11.8372C4.42635 11.9691 4.60176 12.0359 4.80405 12.0359H12.1968Z" fill="#1B4145"/>
<path d="M4.50731 7.68138C4.31651 7.55418 4.14731 7.40849 4 7.24438V11.1239L6.24742 8.87649C5.79781 8.5626 5.21851 8.16469 4.50731 7.68138Z" fill="#1B4145"/>
<path d="M12.4982 7.68138C11.8141 8.14439 11.2327 8.54299 10.7539 8.87739L13.0004 11.124V7.24438C12.8564 7.40519 12.689 7.55078 12.4982 7.68138Z" fill="#1B4145"/>
<path d="M12.1963 4.96436H4.80352C4.54561 4.96436 4.34732 5.05145 4.20842 5.22545C4.0694 5.39954 4 5.61725 4 5.87835C4 6.08925 4.09209 6.31777 4.2762 6.56396C4.4603 6.81006 4.6562 7.00336 4.8638 7.14397C4.97761 7.22438 5.32081 7.46297 5.89342 7.85968C6.20252 8.07388 6.47133 8.26058 6.70233 8.42169C6.89923 8.55888 7.06903 8.67769 7.20923 8.77629C7.22532 8.78758 7.25063 8.80568 7.28423 8.8297C7.32042 8.8557 7.36622 8.88869 7.42273 8.92949C7.53154 9.00818 7.62193 9.07179 7.69392 9.12039C7.76582 9.169 7.85293 9.2233 7.95512 9.28359C8.05723 9.34381 8.15353 9.38909 8.24393 9.4192C8.33434 9.4493 8.41803 9.4644 8.49502 9.4644H8.50002H8.50502C8.582 9.4644 8.66571 9.4493 8.75614 9.4192C8.84651 9.38909 8.94274 9.3439 9.04493 9.28359C9.14702 9.2233 9.23402 9.16889 9.30614 9.12039C9.37814 9.07179 9.46853 9.0082 9.57735 8.92949C9.63374 8.88869 9.67954 8.85568 9.71574 8.82978C9.74935 8.80567 9.77464 8.78767 9.79084 8.77629C9.90005 8.70029 10.0703 8.58197 10.2991 8.42308C10.7155 8.13378 11.3287 7.70798 12.1413 7.14397C12.3857 6.97326 12.5899 6.76726 12.754 6.52627C12.9178 6.28527 12.9999 6.03247 12.9999 5.76796C12.9999 5.54696 12.9203 5.35786 12.7614 5.20035C12.6023 5.04305 12.4139 4.96436 12.1963 4.96436Z" fill="#1B4145"/>
</g>
<defs>
<clipPath id="clip0">
<rect x="4" y="4" width="9" height="9" fill="white"/>
</clipPath>
</defs>
</svg>
