<svg width="285" height="232" viewBox="0 0 285 232" fill="none" xmlns="http://www.w3.org/2000/svg">
<path d="M226.78 79.8575C226.78 112.272 200.461 138.543 167.988 138.543C135.514 138.543 109.195 112.272 109.195 79.8575C109.195 47.4433 135.514 21.1719 167.988 21.1719C200.453 21.1796 226.78 47.451 226.78 79.8575Z" fill="white"/>
<path d="M210.26 61.05C209.694 61.05 209.191 60.6482 209.083 60.0764C208.959 59.4273 209.385 58.8014 210.043 58.6778L223.272 56.182C223.922 56.0584 224.549 56.4834 224.673 57.1402C224.797 57.7969 224.371 58.4151 223.713 58.5387L210.484 61.0345C210.407 61.0422 210.329 61.05 210.26 61.05Z" fill="#1A1A1A"/>
<path d="M210.26 66.9689C209.694 66.9689 209.191 66.5671 209.083 65.9953C208.959 65.3462 209.385 64.7204 210.043 64.5967L223.272 62.101C223.922 61.9773 224.549 62.4023 224.673 63.0591C224.797 63.7081 224.371 64.334 223.713 64.4577L210.484 66.9534C210.407 66.9612 210.329 66.9689 210.26 66.9689Z" fill="#1A1A1A"/>
<path d="M208.704 54.6291C208.418 54.6291 208.101 54.5286 207.884 54.3354C207.621 54.1114 207.443 53.7791 207.443 53.4314V49.1971C207.443 49.1507 207.474 49.1043 207.481 49.058C207.497 48.9189 207.806 45.2641 203.239 41.7097C197.565 37.684 194.159 30.7144 194.159 23.0879C194.159 10.354 204.532 0 217.281 0C230.023 0 240.396 10.354 240.396 23.0879C240.396 32.2752 237.199 38.0549 229.349 43.0387C225.301 46.0754 225.541 51.1751 225.541 51.2215C225.58 51.8474 225.123 52.3883 224.504 52.4733L208.875 54.6136C208.813 54.6213 208.759 54.6291 208.704 54.6291ZM209.842 49.2434V52.056L223.126 50.2402C223.265 48.2312 224.047 43.966 227.925 41.0838C227.948 41.0684 227.979 41.0529 228.003 41.0375C235.178 36.4941 237.981 31.4639 237.981 23.0879C237.981 11.683 228.691 2.40306 217.274 2.40306C205.848 2.40306 196.559 11.683 196.559 23.0879C196.559 29.9339 199.562 36.1773 204.648 39.7857C210.044 43.966 209.842 48.5325 209.842 49.2434Z" fill="#1A1A1A"/>
<path d="M217.079 25.4988H214.958C211.575 25.4988 209.214 23.2657 209.214 20.2986C209.214 17.0301 211.846 14.1094 214.958 14.1094H222.575C223.209 14.1094 223.72 14.6734 223.72 15.307C223.72 15.9406 223.209 16.5047 222.575 16.5047H214.958C213.123 16.5047 211.513 18.3051 211.513 20.2986C211.513 22.3231 213.293 23.1035 214.958 23.1035H217.079C217.713 23.1035 218.224 23.6675 218.224 24.3011C218.232 24.9347 217.713 25.4988 217.079 25.4988Z" fill="black"/>
<path d="M219.107 33.8902H210.491C209.857 33.8902 209.346 33.6198 209.346 32.9862C209.346 32.3526 209.857 32.0899 210.491 32.0899H219.107C220.771 32.0899 222.56 31.2245 222.56 29.1923C222.56 29.1382 222.567 29.0069 222.567 28.9528C222.714 27.9792 222.521 27.2219 221.979 26.6038C221.352 25.8775 220.276 25.4988 219.107 25.4988H215.987C215.353 25.4988 214.842 24.9348 214.842 24.3012C214.842 23.6676 215.353 23.1035 215.987 23.1035H219.107C220.934 23.1035 222.66 23.7989 223.721 25.0198C224.681 26.1325 225.068 27.446 224.851 29.0609C224.797 31.974 222.451 33.8902 219.107 33.8902Z" fill="black"/>
<path d="M216.452 15.9869C215.817 15.9869 215.252 15.477 215.252 14.8434V10.0913C215.252 9.45773 215.817 8.94775 216.452 8.94775C217.087 8.94775 217.652 9.45773 217.652 10.0913V14.8434C217.652 15.4692 217.079 15.9869 216.452 15.9869Z" fill="black"/>
<path d="M216.452 39.3917C215.817 39.3917 215.252 38.8818 215.252 38.2482V33.4961C215.252 32.8625 215.817 32.3525 216.452 32.3525C217.087 32.3525 217.652 32.8625 217.652 33.4961V38.2482C217.652 38.874 217.079 39.3917 216.452 39.3917Z" fill="black"/>
<path d="M9.89516 297.006C9.22944 297.006 8.69531 296.473 8.69531 295.808V215.495H35.7189V295.213C35.7189 295.878 35.1848 296.411 34.519 296.411C33.8533 296.411 33.3192 295.878 33.3192 295.213V217.89H11.1027V295.808C11.095 296.473 10.5609 297.006 9.89516 297.006Z" fill="black"/>
<path d="M73.5397 297.006C72.874 297.006 72.3398 296.473 72.3398 295.808V211.299C72.3398 210.635 72.874 210.102 73.5397 210.102C74.2054 210.102 74.7395 210.635 74.7395 211.299V295.808C74.7395 296.473 74.2054 297.006 73.5397 297.006Z" fill="black"/>
<path d="M48.3209 297.006C47.6552 297.006 47.1211 296.473 47.1211 295.808V187.323H59.1273C59.793 187.323 60.3271 187.864 60.3271 188.52C60.3271 189.185 59.793 189.718 59.1273 189.718H49.5208V295.8C49.5285 296.473 48.9867 297.006 48.3209 297.006Z" fill="black"/>
<path d="M191.683 218.161C191.257 218.161 190.839 217.929 190.622 217.527C190.313 216.94 190.53 216.214 191.11 215.905L225.008 197.762C225.596 197.453 226.324 197.669 226.633 198.249C226.943 198.836 226.726 199.562 226.146 199.871L192.248 218.014C192.062 218.114 191.869 218.161 191.683 218.161Z" fill="#1A1A1A"/>
<path d="M223.916 207.498L222.322 206.957L225.008 199.122L216.988 197.028L217.414 195.397L227.183 197.963L223.916 207.498Z" fill="#1A1A1A"/>
<path d="M205.57 188.884C205.152 188.884 204.741 188.668 204.525 188.274C204.2 187.694 204.401 186.968 204.974 186.643L267.009 151.54C267.59 151.215 268.318 151.416 268.643 151.988C268.968 152.568 268.767 153.294 268.194 153.626L206.158 188.729C205.972 188.838 205.771 188.884 205.57 188.884Z" fill="#1A1A1A"/>
<path d="M266.151 161.299L264.548 160.789L267.048 152.9L258.982 150.991L259.369 149.353L269.193 151.687L266.151 161.299Z" fill="#1A1A1A"/>
<path d="M206.343 162.721L198.386 154.777L206.343 146.842L214.301 154.777L206.343 162.721ZM200.933 154.785L206.336 160.178L211.747 154.785L206.336 149.392L200.933 154.785Z" fill="black"/>
<path d="M-40.4904 221.429C-41.0322 221.429 -41.5277 221.059 -41.6592 220.502C-41.8141 219.861 -41.4115 219.212 -40.7613 219.065C-40.4981 219.003 -13.7842 212.613 15.8636 193.512C43.1735 175.926 78.6424 143.627 92.5374 89.6783C92.7 89.037 93.3579 88.6506 94.0004 88.8129C94.6429 88.9752 95.03 89.6319 94.8674 90.2733C88.6437 114.443 77.6671 136.38 62.2394 155.473C49.9004 170.741 34.7127 184.232 17.0944 195.568C-12.894 214.869 -39.9485 221.329 -40.2194 221.391C-40.3046 221.422 -40.3975 221.429 -40.4904 221.429Z" fill="black"/>
<path d="M108.73 132.315C108.583 132.315 108.436 132.292 108.297 132.23C107.677 131.99 107.376 131.295 107.616 130.677L121.48 95.0559C121.549 94.8782 121.658 94.7237 121.797 94.6C121.952 94.461 125.675 91.1461 132.069 87.1282C132.634 86.7727 133.37 86.9427 133.726 87.5068C134.082 88.0708 133.911 88.8049 133.346 89.1603C127.966 92.5447 124.475 95.4577 123.608 96.2072L109.845 131.558C109.667 132.029 109.21 132.315 108.73 132.315Z" fill="black"/>
<path d="M194.888 105.742C194.686 105.742 194.493 105.696 194.315 105.595L162.631 88.3723L155.819 87.6691C155.161 87.5996 154.681 87.0123 154.751 86.3555C154.821 85.6988 155.401 85.2197 156.067 85.2892L163.119 86.0156C163.274 86.031 163.428 86.0774 163.568 86.1546L194.261 102.837L203.844 77.9873V72.8412C203.844 72.1767 204.378 71.6436 205.044 71.6436C205.709 71.6436 206.243 72.1767 206.243 72.8412V78.2114C206.243 78.3582 206.213 78.505 206.166 78.6441L196.01 104.977C195.886 105.302 195.631 105.549 195.306 105.673C195.166 105.719 195.027 105.742 194.888 105.742Z" fill="black"/>
<path d="M196.613 116.359C195.483 116.359 194.283 116.135 193.022 115.695C178.964 110.657 168.792 104.676 168.684 104.614C168.111 104.274 167.925 103.54 168.266 102.976C168.607 102.404 169.342 102.219 169.915 102.559C170.015 102.621 180.001 108.485 193.827 113.438C195.816 114.134 197.55 114.134 198.959 113.438C201.103 112.372 201.916 109.992 201.924 109.969L210.787 78.7524C210.864 78.4819 211.035 78.2424 211.275 78.0801L218.853 73.019C219.403 72.6481 220.153 72.7949 220.517 73.3513C220.889 73.8999 220.742 74.6494 220.184 75.0125L212.97 79.8187L204.215 110.649C204.161 110.827 203.1 114.049 200.019 115.571C198.974 116.096 197.836 116.359 196.613 116.359Z" fill="black"/>
<path d="M150.098 162.682C149.975 162.682 149.889 162.682 149.858 162.682C149.231 162.674 148.72 162.187 148.682 161.562L147.846 148.92C147.799 148.256 148.302 147.692 148.968 147.645C149.626 147.599 150.199 148.101 150.245 148.766L151.004 160.271C153.86 160.186 161.57 159.653 166.014 156.539C165.913 156.245 165.82 155.96 165.727 155.689C164.078 150.759 163.165 148.039 161.934 138.018C161.207 132.06 162.019 118.229 162.058 117.642C162.097 116.977 162.677 116.475 163.328 116.514C163.986 116.552 164.496 117.124 164.458 117.781C164.45 117.92 163.614 131.983 164.318 137.724C165.518 147.514 166.401 150.149 168.003 154.932C168.181 155.457 168.367 156.014 168.56 156.601C168.715 157.072 168.568 157.582 168.189 157.899C162.615 162.489 151.894 162.682 150.098 162.682Z" fill="black"/>
<path d="M108.468 165.549C108.413 165.549 108.359 165.549 108.305 165.541C107.647 165.456 107.183 164.853 107.276 164.196L108.019 158.602C108.034 158.509 108.057 158.417 108.088 158.324L117.238 134.865C117.246 134.842 117.254 134.826 117.261 134.803L129.221 108.671C129.438 108.192 129.949 107.914 130.475 107.983C131.001 108.053 131.412 108.455 131.505 108.972C131.636 109.768 134.733 128.475 133.951 135.877C133.231 142.654 130.39 153.641 129.446 157.165C131.218 157.721 135.058 158.818 139.594 159.452C140.252 159.545 140.709 160.147 140.616 160.804C140.523 161.461 139.911 161.917 139.261 161.824C132.774 160.912 127.789 159.151 127.58 159.073C126.992 158.865 126.659 158.231 126.829 157.628C126.868 157.489 130.738 143.411 131.559 135.63C132.093 130.546 130.622 119.311 129.74 113.315L119.46 135.769L110.38 159.058L109.66 164.505C109.575 165.108 109.064 165.549 108.468 165.549Z" fill="black"/>
<path d="M145.075 86.0003C144.517 86.0003 144.022 85.614 143.898 85.0499C143.759 84.4009 144.177 83.7673 144.827 83.6282L149.177 82.7164L148.875 74.835L149.82 74.6032C149.944 74.5723 153.009 73.73 153.435 70.4307C154.224 64.2569 153.946 58.8867 153.938 58.8326C153.899 58.1681 154.41 57.604 155.076 57.5731C155.741 57.5422 156.307 58.0445 156.338 58.7013C156.353 58.9253 156.632 64.3342 155.819 70.732C155.354 74.3559 152.777 75.9708 151.345 76.589L151.654 84.6404L145.322 85.9694C145.245 85.9926 145.16 86.0003 145.075 86.0003Z" fill="black"/>
<path d="M120.156 92.8387C120.117 92.8387 120.086 92.8387 120.048 92.831C119.39 92.7691 118.902 92.1896 118.956 91.5328C119.537 84.9882 122.207 83.5819 124.793 82.2219C126.728 81.202 128.555 80.2439 129.886 76.7822C129.871 73.6374 129.476 71.0721 129.097 68.584C128.509 64.7128 127.951 61.0503 129.213 56.5069C130.808 48.1232 138.278 42.9539 146.615 44.4916C150.988 45.2952 153.798 47.3892 155.478 51.0749L155.695 51.5462L155.493 52.0253C152.149 60.069 143.139 60.8262 142.752 60.8571C142.086 60.9035 141.513 60.409 141.467 59.7522C141.42 59.0954 141.916 58.5159 142.574 58.4695C142.651 58.4618 150.121 57.805 153.063 51.5926C151.708 48.9423 149.564 47.4742 146.181 46.8483C140.213 45.7511 133.068 48.9345 131.566 56.9937L131.543 57.0941C130.405 61.1662 130.947 64.4347 131.528 68.2208C131.907 70.7321 132.395 73.5756 132.395 76.9986V77.2149L132.271 77.4158C130.614 81.8974 128.013 83.2573 125.946 84.3468C123.57 85.5986 121.844 86.5026 121.371 91.7492C121.31 92.3751 120.775 92.8387 120.156 92.8387Z" fill="black"/>
<path d="M132.711 89.346C132.317 89.346 131.93 89.1529 131.705 88.7974C131.341 88.2411 131.504 87.4993 132.061 87.1361L137.232 83.7904L137.379 70.3765C137.387 69.712 137.944 69.1943 138.595 69.1943C139.26 69.2021 139.787 69.7429 139.779 70.4075L139.616 85.1117L133.362 89.1529C133.16 89.2842 132.936 89.346 132.711 89.346Z" fill="black"/>
<path d="M138.92 71.3038C138.881 71.3038 138.85 71.3038 138.811 71.2961C135.622 71.0179 134.353 69.3876 133.842 68.074C132.975 65.8177 134.105 63.2756 136.365 62.4024C137.658 61.9079 139.129 62.0547 140.298 62.7888C140.855 63.1442 141.025 63.886 140.669 64.4423C140.313 64.9987 139.57 65.1687 139.013 64.8132C138.486 64.481 137.813 64.4114 137.232 64.6355C136.21 65.0296 135.699 66.1809 136.087 67.2086C136.334 67.8422 136.907 68.7153 139.02 68.9008C139.678 68.9626 140.166 69.5421 140.112 70.1989C140.058 70.8325 139.531 71.3038 138.92 71.3038Z" fill="black"/>
<path d="M160.471 118.924C159.944 118.924 159.457 118.577 159.31 118.044C159.132 117.402 159.511 116.745 160.153 116.575C160.324 116.529 164.403 115.331 164.806 111.136C165.317 105.789 162.538 103.996 162.514 103.973C161.941 103.633 161.756 102.899 162.096 102.327C162.437 101.755 163.172 101.57 163.745 101.91C163.915 102.01 167.863 104.429 167.205 111.36C166.648 117.224 161.036 118.816 160.796 118.886C160.68 118.917 160.571 118.924 160.471 118.924Z" fill="black"/>
<path d="M148.782 118.909C148.147 118.909 147.613 118.407 147.582 117.766L147.002 105.032L135.576 87.1052C135.22 86.5489 135.383 85.8071 135.948 85.4517C136.505 85.0962 137.248 85.2585 137.604 85.8226L149.208 104.019C149.324 104.197 149.386 104.398 149.394 104.607L149.99 117.665C150.021 118.33 149.51 118.886 148.844 118.917C148.821 118.909 148.805 118.909 148.782 118.909Z" fill="black"/>
<path d="M148.185 105.851C148.031 105.851 147.876 105.82 147.721 105.758C147.109 105.503 146.815 104.8 147.071 104.189L154.672 85.9769C154.928 85.3665 155.632 85.0729 156.244 85.3279C156.855 85.5829 157.149 86.286 156.894 86.8964L149.3 105.109C149.107 105.572 148.658 105.851 148.185 105.851Z" fill="black"/>
<path d="M169.118 222.086H128.834L128.733 221.081C128.555 219.095 127.982 216.407 127.324 213.246C125.017 202.228 121.162 183.799 127.239 163.184C127.425 162.55 128.091 162.195 128.733 162.38C129.368 162.566 129.732 163.238 129.546 163.871C123.64 183.907 127.278 201.2 129.678 212.705C130.243 215.417 130.746 217.89 131.009 219.683H166.904L167.267 215.178C169.466 187.307 169.923 181.551 167.345 166.259C167.236 165.602 167.678 165.007 168.328 164.899C168.978 164.791 169.605 165.239 169.714 165.896C172.338 181.481 171.873 187.245 169.659 215.363L169.118 222.086Z" fill="black"/>
<path d="M172.965 290.647C172.516 290.647 172.082 290.392 171.873 289.952L170.433 286.869L166.284 232.657C166.23 232 166.726 231.42 167.391 231.366C168.057 231.312 168.63 231.807 168.684 232.471L172.802 286.243L174.064 288.932C174.343 289.534 174.087 290.245 173.483 290.523C173.305 290.608 173.135 290.647 172.965 290.647Z" fill="black"/>
<path d="M167.368 234.21C166.981 234.21 166.602 234.024 166.369 233.676C166.083 233.251 165.982 233.089 166.826 227.812C166.927 227.201 166.857 226.405 166.764 225.3C166.671 224.172 166.555 222.758 166.555 220.873C166.555 220.208 167.089 219.675 167.755 219.675C168.421 219.675 168.955 220.216 168.955 220.873C168.955 222.658 169.071 224.01 169.156 225.1C169.257 226.32 169.342 227.286 169.195 228.19C168.622 231.768 168.56 232.68 168.56 232.873C168.607 233.306 168.421 233.746 168.034 234.009C167.825 234.148 167.593 234.21 167.368 234.21Z" fill="black"/>
<path d="M126.457 290.84C126.418 290.84 126.387 290.84 126.349 290.832C125.691 290.77 125.203 290.191 125.265 289.526L125.699 285.037L142.264 232.749L143.023 227.078C143.108 226.421 143.719 225.957 144.37 226.05C145.028 226.135 145.492 226.738 145.399 227.394L144.579 233.375L128.021 285.64L127.649 289.75C127.595 290.368 127.076 290.84 126.457 290.84Z" fill="black"/>
<path d="M114.722 291.303C114.544 291.303 114.358 291.265 114.18 291.172C113.584 290.871 113.351 290.152 113.646 289.565L114.768 287.332C115.364 285.199 116.099 282.719 116.874 280.092C119.049 272.728 121.75 263.564 121.836 260.265C122.3 242.47 126.743 234.951 128.322 232.842L128.415 232.541C129.042 230.493 130.219 226.684 129.886 222.318C129.832 221.661 130.327 221.082 130.993 221.027C131.659 220.973 132.232 221.468 132.286 222.132C132.657 226.946 131.349 231.196 130.722 233.244L130.505 233.955L130.366 234.132C129.429 235.338 124.715 242.261 124.251 260.326C124.158 263.935 121.518 272.875 119.188 280.764C118.399 283.43 117.655 285.949 117.067 288.081L116.982 288.298L115.805 290.639C115.589 291.064 115.163 291.303 114.722 291.303Z" fill="black"/>
<path d="M162.886 290.492C162.848 290.492 162.801 290.492 162.762 290.484C162.104 290.415 161.624 289.827 161.686 289.171L161.934 286.752C161.183 283.113 160.502 279.419 159.898 276.151C159.031 271.43 158.273 267.35 157.584 264.785C152.993 247.716 154.58 234.773 155.579 231.18C155.509 230.5 155.362 229.797 155.207 229.063C154.967 227.912 154.712 226.73 154.712 225.439C154.712 224.775 155.246 224.242 155.912 224.242C156.577 224.242 157.112 224.775 157.112 225.439C157.112 226.475 157.328 227.495 157.553 228.569C157.731 229.426 157.924 230.315 157.986 231.211L158.002 231.435L157.94 231.652C157.173 234.14 155.269 246.959 159.898 264.167C160.61 266.825 161.377 270.943 162.252 275.718C162.863 279.025 163.552 282.773 164.311 286.451L164.349 286.629L164.063 289.418C164.016 290.028 163.49 290.492 162.886 290.492Z" fill="black"/>
<path d="M89.2086 171.066C89.0847 171.066 88.9609 171.042 88.837 171.004C88.21 170.795 87.8617 170.131 88.0629 169.505C88.7054 167.511 91.229 164.003 96.2296 165.039L98.4358 165.495C99.086 165.626 99.504 166.267 99.3647 166.909C99.2331 167.558 98.5906 167.975 97.9481 167.836L95.7419 167.38C91.7089 166.545 90.4781 169.853 90.3542 170.239C90.1839 170.749 89.7117 171.066 89.2086 171.066Z" fill="black"/>
<path d="M111.867 210.774C111.433 210.774 110.992 210.728 110.558 210.643L70.77 202.383C69.098 202.035 67.6582 201.061 66.7215 199.632C65.7849 198.202 65.4598 196.502 65.8081 194.833L70.5068 172.279C71.1184 169.335 73.7503 167.194 76.7615 167.194C77.195 167.194 77.6362 167.241 78.0697 167.326L117.858 175.586C121.311 176.304 123.532 179.689 122.82 183.135L118.121 205.69C117.51 208.634 114.886 210.774 111.867 210.774ZM76.7693 169.59C74.8882 169.59 73.2471 170.926 72.8601 172.765L68.1613 195.32C67.9446 196.363 68.1459 197.43 68.7342 198.318C69.3225 199.207 70.2127 199.817 71.2577 200.034L111.046 208.294C111.317 208.348 111.596 208.379 111.867 208.379C113.748 208.379 115.389 207.042 115.776 205.203L120.475 182.648C120.923 180.492 119.53 178.375 117.378 177.935L77.5898 169.675C77.3189 169.613 77.0402 169.59 76.7693 169.59Z" fill="black"/>
<path d="M97.6457 189.178L91.3756 187.872L90.1138 184.248L79.0133 181.945C78.3631 181.814 77.9451 181.172 78.0844 180.531C78.216 179.882 78.8508 179.465 79.501 179.604L91.9329 182.185L93.1947 185.809L96.7942 186.558L99.3952 183.73L111.827 186.311C112.477 186.442 112.895 187.084 112.756 187.733C112.624 188.382 111.982 188.799 111.339 188.66L100.239 186.357L97.6457 189.178Z" fill="black"/>
<path d="M103.893 171.97C103.66 171.954 98.2184 171.491 97.6688 167.264C97.6534 167.171 97.6534 167.071 97.6688 166.978L98.6752 157.775C98.6829 157.69 98.7061 157.613 98.7293 157.528L107.662 130.584L109.946 131.342L101.052 158.162L100.076 167.079C100.494 169.258 104.047 169.574 104.086 169.574L103.893 171.97Z" fill="black"/>
<path d="M104.853 158.865C104.783 158.865 104.713 158.857 104.644 158.842L100.402 157.837C99.9216 157.721 99.6197 157.234 99.7358 156.755C99.8519 156.276 100.332 155.975 100.82 156.091L105.062 157.095C105.549 157.211 105.843 157.698 105.727 158.177C105.634 158.587 105.263 158.865 104.853 158.865Z" fill="black"/>
<path d="M210.95 83.3652C210.865 83.3652 210.779 83.3498 210.694 83.3266L207.242 82.3221C206.762 82.183 206.491 81.6807 206.63 81.2094C206.77 80.7303 207.265 80.4599 207.745 80.599L211.197 81.6035C211.677 81.7426 211.948 82.2448 211.809 82.7162C211.701 83.1102 211.345 83.3652 210.95 83.3652Z" fill="black"/>
<path d="M266.653 190.715C266.653 191.982 265.623 193.01 264.346 193.01C263.076 193.01 262.047 191.982 262.047 190.715C262.047 189.448 263.076 188.412 264.346 188.412C265.623 188.412 266.653 189.44 266.653 190.715Z" fill="black"/>
<path d="M5.69917 142.947C5.69917 144.168 4.70059 145.165 3.47752 145.165C2.25445 145.165 1.25586 144.176 1.25586 142.947C1.25586 141.719 2.25445 140.729 3.47752 140.729C4.70059 140.729 5.69917 141.719 5.69917 142.947Z" fill="black"/>
<path d="M0.287973 176.536H-13.5218C-14.1876 176.536 -14.7217 176.003 -14.7217 175.338C-14.7217 174.674 -14.1876 174.141 -13.5218 174.141H0.287973C0.953692 174.141 1.48782 174.674 1.48782 175.338C1.48782 176.003 0.953692 176.536 0.287973 176.536Z" fill="black"/>
<path d="M43.3752 116.923C43.2204 116.923 43.0578 116.861 42.9417 116.745C42.7017 116.506 42.7017 116.112 42.9417 115.872L50.7677 108.037C51.0077 107.798 51.4025 107.798 51.6425 108.037C51.8824 108.277 51.8824 108.671 51.6425 108.91L43.8164 116.745C43.6926 116.861 43.53 116.923 43.3752 116.923Z" fill="black"/>
<path d="M51.2069 116.915C51.0521 116.915 50.8895 116.854 50.7734 116.738L42.9241 108.926C42.6841 108.686 42.6841 108.292 42.9241 108.053C43.1641 107.813 43.5589 107.813 43.7988 108.053L51.6481 115.865C51.8881 116.104 51.8881 116.498 51.6481 116.738C51.5243 116.854 51.3617 116.915 51.2069 116.915Z" fill="black"/>
</svg>
