<svg width="17" height="17" viewBox="0 0 17 17" fill="none" xmlns="http://www.w3.org/2000/svg">
<path d="M8.5 0C3.80558 0 0 3.80558 0 8.50003C0 10.2766 0.545395 11.9257 1.47744 13.2896L0.360951 16.639L3.71038 15.5226C5.0743 16.4546 6.72333 17 8.5 17C13.1944 17 17 13.1944 17 8.50003C17 3.80558 13.1944 0 8.5 0Z" fill="#FADD05"/>
<path d="M8.49941 3C6.30274 3 4.51562 4.78711 4.51562 6.98376C4.51562 9.70987 8.08072 13.712 8.23251 13.881C8.37508 14.0398 8.624 14.0395 8.76631 13.881C8.9181 13.712 12.4832 9.70987 12.4832 6.98376C12.4831 4.78711 10.6961 3 8.49941 3ZM8.49941 8.9881C7.39421 8.9881 6.49509 8.08896 6.49509 6.98376C6.49509 5.87856 7.39423 4.97944 8.49941 4.97944C9.60459 4.97944 10.5037 5.87858 10.5037 6.98378C10.5037 8.08898 9.60459 8.9881 8.49941 8.9881Z" fill="#1B4145"/>
</svg>
