<svg width="4" height="6" viewBox="0 0 4 6" fill="none" xmlns="http://www.w3.org/2000/svg">
<path d="M2.65585 3.00127L0.108719 0.756585C0.0385832 0.694927 4.23292e-07 0.612488 4.30976e-07 0.524585C4.38665e-07 0.436634 0.0385832 0.354244 0.108719 0.292487L0.331913 0.0959021C0.401937 0.0340485 0.495544 -3.06369e-07 0.595295 -2.97649e-07C0.695046 -2.88928e-07 0.788541 0.0340485 0.858621 0.0959022L3.89139 2.76839C3.96175 2.83034 4.00028 2.91312 4 3.00112C4.00028 3.08951 3.9618 3.1722 3.89139 3.2342L0.861444 5.9041C0.791364 5.96595 0.697869 6 0.598062 6C0.498311 6 0.404816 5.96595 0.33468 5.9041L0.111541 5.70751C-0.0336561 5.57956 -0.0336561 5.37127 0.111542 5.24337L2.65585 3.00127Z" fill="black"/>
</svg>
